<?xml version="1.0" encoding="UTF-8" standalone="no"?>
<!DOCTYPE svg PUBLIC "-//W3C//DTD SVG 1.1//EN" "http://www.w3.org/Graphics/SVG/1.1/DTD/svg11.dtd">
<svg width="100%" height="100%" viewBox="0 0 64 32" version="1.1" xmlns="http://www.w3.org/2000/svg" xmlns:xlink="http://www.w3.org/1999/xlink" xml:space="preserve" xmlns:serif="http://www.serif.com/" style="fill-rule:evenodd;clip-rule:evenodd;stroke-linejoin:round;stroke-miterlimit:2;">
    <g transform="matrix(64,0,0,32,0,0)">
        <path d="M1,0.016C1,0.007 0.996,0 0.992,0L0.008,0C0.004,0 0,0.007 0,0.016L0,0.984C0,0.993 0.004,1 0.008,1L0.992,1C0.996,1 1,0.993 1,0.984L1,0.016Z" style="fill:rgb(245,197,24);"/>
    </g>
    <path d="M8,25L13,25L13,7L8,7L8,25ZM23.673,7L22.553,15.408L21.858,10.835C21.657,9.37 21.463,8.092 21.278,7L15,7L15,25L19.242,25L19.258,13.114L21.044,25L24.063,25L25.758,12.852L25.771,25L30,25L30,7L23.673,7ZM32,25L32,7L39.805,7C41.569,7 43,8.42 43,10.177L43,21.823C43,23.578 41.572,25 39.805,25L32,25ZM37.832,10.24C37.634,10.132 37.255,10.081 36.703,10.081L36.703,21.891C37.431,21.891 37.88,21.76 38.048,21.487C38.216,21.217 38.302,20.486 38.302,19.287L38.302,12.308C38.302,11.494 38.272,10.974 38.216,10.744C38.16,10.513 38.035,10.347 37.832,10.24ZM52.43,11.507L52.75,11.507C54.545,11.507 56,12.913 56,14.645L56,21.862C56,23.595 54.545,25 52.75,25L52.43,25C51.331,25 50.36,24.474 49.772,23.668L49.484,24.769L45,24.769L45,7L49.784,7L49.784,12.781C50.402,12.01 51.355,11.507 52.43,11.507ZM51.406,20.284L51.406,16.019C51.406,15.314 51.36,14.852 51.266,14.639C51.172,14.426 50.796,14.289 50.532,14.289C50.268,14.289 49.861,14.4 49.782,14.588L49.782,21.807C49.872,22.013 50.26,22.127 50.532,22.127C50.803,22.127 51.198,22.017 51.281,21.807C51.364,21.598 51.406,21.088 51.406,20.284Z" style="fill-rule:nonzero;"/>
</svg>
