<svg width="375" height="215" viewBox="0 0 375 215" fill="none" xmlns="http://www.w3.org/2000/svg">
<g clip-path="url(#clip0_24_1329)">
<rect width="376" height="215" fill="#F2F2F7"/>
<path d="M39 73C39 54.2223 54.2223 39 73 39H303C321.778 39 337 54.2223 337 73V277H39V73Z" fill="#F2F1F7" stroke="#C7C7CC" stroke-width="2"/>
<rect x="58" y="95" width="260" height="40" rx="10" fill="white"/>
<line x1="113.75" y1="114.25" x2="211.25" y2="114.25" stroke="#3C3C43" stroke-opacity="0.18" stroke-width="1.5" stroke-linecap="round"/>
<rect x="260" y="104" width="44" height="22" rx="11" fill="#A8E2AF"/>
<rect x="284" y="106" width="18" height="18" rx="9" fill="white"/>
<rect x="74" y="104" width="23" height="22" rx="8" fill="#3C3C43" fill-opacity="0.18"/>
<g filter="url(#filter0_d_24_1329)">
<rect x="30" y="145" width="316" height="50" rx="10" fill="white"/>
</g>
<line x1="255.75" y1="169.25" x2="281.25" y2="169.25" stroke="#3C3C43" stroke-opacity="0.18" stroke-width="1.5" stroke-linecap="round"/>
<path d="M302.688 169.712C302.688 169.463 302.592 169.25 302.402 169.06L296.689 163.472C296.528 163.311 296.33 163.23 296.096 163.23C295.62 163.23 295.239 163.596 295.239 164.072C295.239 164.307 295.334 164.519 295.495 164.688L300.651 169.712L295.495 174.736C295.341 174.897 295.239 175.11 295.239 175.344C295.239 175.828 295.62 176.194 296.096 176.194C296.33 176.194 296.528 176.113 296.689 175.952L302.402 170.364C302.6 170.173 302.688 169.961 302.688 169.712Z" fill="#3C3C43" fill-opacity="0.6"/>
<path d="M75.3906 176H79.6172C82.9922 176 84.9219 173.93 84.9219 170.32V170.305C84.9219 166.773 82.9688 164.727 79.6172 164.727H75.3906V176ZM77.4062 174.305V166.422H79.3516C81.5625 166.422 82.8672 167.859 82.8672 170.336V170.352C82.8672 172.883 81.5938 174.305 79.3516 174.305H77.4062ZM90.6875 176.172C93.0078 176.172 94.1484 174.836 94.4219 173.734L94.4453 173.664H92.5938L92.5703 173.719C92.3828 174.109 91.7812 174.641 90.7266 174.641C89.4062 174.641 88.5781 173.75 88.5547 172.219H94.5234V171.578C94.5234 169 93.0234 167.297 90.5938 167.297C88.1641 167.297 86.6094 169.055 86.6094 171.742V171.75C86.6094 174.469 88.1484 176.172 90.6875 176.172ZM90.6172 168.82C91.7031 168.82 92.4922 169.516 92.625 170.914H88.5703C88.7188 169.555 89.5312 168.82 90.6172 168.82ZM97.0938 176H99.0391V168.969H100.859V167.461H99.0078V166.727C99.0078 165.914 99.3594 165.477 100.273 165.477C100.547 165.477 100.789 165.492 100.938 165.516V164.156C100.625 164.102 100.273 164.078 99.8594 164.078C97.9609 164.078 97.0938 164.914 97.0938 166.617V167.461H95.6953V168.969H97.0938V176ZM104.797 176.141C105.922 176.141 106.828 175.656 107.297 174.828H107.43V176H109.352V170.164C109.352 168.359 108.117 167.297 105.922 167.297C103.891 167.297 102.516 168.25 102.328 169.688L102.32 169.758H104.156L104.164 169.727C104.359 169.164 104.938 168.844 105.828 168.844C106.875 168.844 107.43 169.312 107.43 170.164V170.898L105.234 171.031C103.156 171.156 101.992 172.047 101.992 173.57V173.586C101.992 175.141 103.172 176.141 104.797 176.141ZM103.914 173.492V173.477C103.914 172.773 104.422 172.375 105.508 172.305L107.43 172.18V172.867C107.43 173.883 106.562 174.648 105.391 174.648C104.531 174.648 103.914 174.219 103.914 173.492ZM114.516 176.172C115.75 176.172 116.617 175.617 117.016 174.703H117.148V176H119.094V167.461H117.148V172.438C117.148 173.719 116.477 174.531 115.219 174.531C114.047 174.531 113.555 173.859 113.555 172.539V167.461H111.609V172.984C111.609 175.016 112.594 176.172 114.516 176.172ZM121.547 176H123.492V164.156H121.547V176ZM129.312 176.039C129.688 176.039 130.047 176.008 130.328 175.953V174.453C130.094 174.477 129.945 174.484 129.672 174.484C128.859 174.484 128.523 174.125 128.523 173.273V168.969H130.328V167.461H128.523V165.367H126.547V167.461H125.219V168.969H126.547V173.734C126.547 175.383 127.352 176.039 129.312 176.039ZM136.734 176H141.555C143.961 176 145.43 174.781 145.43 172.805V172.789C145.43 171.328 144.383 170.234 142.867 170.094V169.953C144 169.773 144.875 168.727 144.875 167.547V167.531C144.875 165.805 143.586 164.727 141.445 164.727H136.734V176ZM140.953 166.297C142.172 166.297 142.883 166.883 142.883 167.883V167.898C142.883 168.922 142.125 169.477 140.695 169.477H138.75V166.297H140.953ZM141.016 170.906C142.555 170.906 143.367 171.508 143.367 172.648V172.664C143.367 173.812 142.578 174.43 141.094 174.43H138.75V170.906H141.016ZM147.422 176H149.367V171.039C149.367 169.82 150.219 169.047 151.516 169.047C151.852 169.047 152.172 169.094 152.484 169.156V167.414C152.297 167.359 151.992 167.32 151.695 167.32C150.57 167.32 149.789 167.859 149.5 168.773H149.367V167.461H147.422V176ZM157.547 176.172C160.102 176.172 161.656 174.5 161.656 171.734V171.719C161.656 168.969 160.094 167.297 157.547 167.297C155.008 167.297 153.438 168.977 153.438 171.719V171.734C153.438 174.5 154.984 176.172 157.547 176.172ZM157.547 174.594C156.195 174.594 155.422 173.539 155.422 171.742V171.727C155.422 169.93 156.195 168.867 157.547 168.867C158.891 168.867 159.664 169.93 159.664 171.727V171.742C159.664 173.539 158.898 174.594 157.547 174.594ZM164.891 176H166.906L168.562 169.812H168.695L170.359 176H172.398L174.711 167.461H172.781L171.367 173.875H171.234L169.578 167.461H167.727L166.086 173.875H165.953L164.531 167.461H162.578L164.891 176ZM179.398 176.172C181.5 176.172 183.023 175.086 183.023 173.461V173.445C183.023 172.203 182.234 171.492 180.562 171.117L179.18 170.812C178.258 170.602 177.898 170.297 177.898 169.797V169.789C177.898 169.148 178.523 168.727 179.391 168.727C180.305 168.727 180.867 169.164 181.008 169.703L181.016 169.727H182.844V169.711C182.719 168.328 181.477 167.297 179.398 167.297C177.383 167.297 175.977 168.359 175.977 169.898V169.906C175.977 171.164 176.75 171.93 178.375 172.289L179.758 172.602C180.695 172.812 181.07 173.141 181.07 173.641V173.656C181.07 174.297 180.398 174.734 179.43 174.734C178.461 174.734 177.891 174.32 177.688 173.727L177.68 173.711H175.75V173.727C175.914 175.172 177.227 176.172 179.398 176.172ZM188.641 176.172C190.961 176.172 192.102 174.836 192.375 173.734L192.398 173.664H190.547L190.523 173.719C190.336 174.109 189.734 174.641 188.68 174.641C187.359 174.641 186.531 173.75 186.508 172.219H192.477V171.578C192.477 169 190.977 167.297 188.547 167.297C186.117 167.297 184.562 169.055 184.562 171.742V171.75C184.562 174.469 186.102 176.172 188.641 176.172ZM188.57 168.82C189.656 168.82 190.445 169.516 190.578 170.914H186.523C186.672 169.555 187.484 168.82 188.57 168.82ZM194.422 176H196.367V171.039C196.367 169.82 197.219 169.047 198.516 169.047C198.852 169.047 199.172 169.094 199.484 169.156V167.414C199.297 167.359 198.992 167.32 198.695 167.32C197.57 167.32 196.789 167.859 196.5 168.773H196.367V167.461H194.422V176ZM204.711 176H206.82L207.758 173.086H211.93L212.875 176H214.984L210.984 164.727H208.711L204.711 176ZM209.781 166.82H209.914L211.43 171.531H208.266L209.781 166.82ZM216.719 178.836H218.664V174.641H218.797C219.242 175.562 220.219 176.141 221.391 176.141C223.555 176.141 224.898 174.461 224.898 171.742V171.727C224.898 169.023 223.531 167.32 221.391 167.32C220.195 167.32 219.266 167.867 218.797 168.797H218.664V167.461H216.719V178.836ZM220.781 174.5C219.461 174.5 218.641 173.445 218.641 171.734V171.719C218.641 170.008 219.461 168.961 220.781 168.961C222.109 168.961 222.914 170.008 222.914 171.727V171.742C222.914 173.453 222.109 174.5 220.781 174.5ZM226.859 178.836H228.805V174.641H228.938C229.383 175.562 230.359 176.141 231.531 176.141C233.695 176.141 235.039 174.461 235.039 171.742V171.727C235.039 169.023 233.672 167.32 231.531 167.32C230.336 167.32 229.406 167.867 228.938 168.797H228.805V167.461H226.859V178.836ZM230.922 174.5C229.602 174.5 228.781 173.445 228.781 171.734V171.719C228.781 170.008 229.602 168.961 230.922 168.961C232.25 168.961 233.055 170.008 233.055 171.727V171.742C233.055 173.453 232.25 174.5 230.922 174.5Z" fill="black"/>
<path d="M165.477 73H167.422V65.2344H167.547L173.086 73H174.828V61.7266H172.891V69.4922H172.766L167.227 61.7266H165.477V73ZM181.07 73.1719C183.391 73.1719 184.531 71.8359 184.805 70.7344L184.828 70.6641H182.977L182.953 70.7188C182.766 71.1094 182.164 71.6406 181.109 71.6406C179.789 71.6406 178.961 70.75 178.938 69.2188H184.906V68.5781C184.906 66 183.406 64.2969 180.977 64.2969C178.547 64.2969 176.992 66.0547 176.992 68.7422V68.75C176.992 71.4688 178.531 73.1719 181.07 73.1719ZM181 65.8203C182.086 65.8203 182.875 66.5156 183.008 67.9141H178.953C179.102 66.5547 179.914 65.8203 181 65.8203ZM190.508 73.1719C192.828 73.1719 193.969 71.8359 194.242 70.7344L194.266 70.6641H192.414L192.391 70.7188C192.203 71.1094 191.602 71.6406 190.547 71.6406C189.227 71.6406 188.398 70.75 188.375 69.2188H194.344V68.5781C194.344 66 192.844 64.2969 190.414 64.2969C187.984 64.2969 186.43 66.0547 186.43 68.7422V68.75C186.43 71.4688 187.969 73.1719 190.508 73.1719ZM190.438 65.8203C191.523 65.8203 192.312 66.5156 192.445 67.9141H188.391C188.539 66.5547 189.352 65.8203 190.438 65.8203ZM198.383 73H200.516L203.539 64.4609H201.492L199.531 71.1016H199.398L197.422 64.4609H195.344L198.383 73ZM207.211 73.1406C208.336 73.1406 209.242 72.6562 209.711 71.8281H209.844V73H211.766V67.1641C211.766 65.3594 210.531 64.2969 208.336 64.2969C206.305 64.2969 204.93 65.25 204.742 66.6875L204.734 66.7578H206.57L206.578 66.7266C206.773 66.1641 207.352 65.8438 208.242 65.8438C209.289 65.8438 209.844 66.3125 209.844 67.1641V67.8984L207.648 68.0312C205.57 68.1562 204.406 69.0469 204.406 70.5703V70.5859C204.406 72.1406 205.586 73.1406 207.211 73.1406ZM206.328 70.4922V70.4766C206.328 69.7734 206.836 69.375 207.922 69.3047L209.844 69.1797V69.8672C209.844 70.8828 208.977 71.6484 207.805 71.6484C206.945 71.6484 206.328 71.2188 206.328 70.4922Z" fill="black"/>
<path d="M63.3125 67.2881C63.3125 67.5371 63.4077 67.7495 63.5981 67.9399L69.311 73.5283C69.4722 73.6895 69.6699 73.77 69.9043 73.77C70.3804 73.77 70.7612 73.4038 70.7612 72.9277C70.7612 72.6934 70.666 72.481 70.5049 72.3125L65.3486 67.2881L70.5049 62.2637C70.6587 62.1025 70.7612 61.8901 70.7612 61.6558C70.7612 61.1724 70.3804 60.8062 69.9043 60.8062C69.6699 60.8062 69.4722 60.8867 69.311 61.0479L63.5981 66.6362C63.4004 66.8267 63.3125 67.0391 63.3125 67.2881Z" fill="#4078FB"/>
</g>
<defs>
<filter id="filter0_d_24_1329" x="0" y="115" width="376" height="110" filterUnits="userSpaceOnUse" color-interpolation-filters="sRGB">
<feFlood flood-opacity="0" result="BackgroundImageFix"/>
<feColorMatrix in="SourceAlpha" type="matrix" values="0 0 0 0 0 0 0 0 0 0 0 0 0 0 0 0 0 0 127 0" result="hardAlpha"/>
<feOffset/>
<feGaussianBlur stdDeviation="15"/>
<feComposite in2="hardAlpha" operator="out"/>
<feColorMatrix type="matrix" values="0 0 0 0 0 0 0 0 0 0 0 0 0 0 0 0 0 0 0.15 0"/>
<feBlend mode="normal" in2="BackgroundImageFix" result="effect1_dropShadow_24_1329"/>
<feBlend mode="normal" in="SourceGraphic" in2="effect1_dropShadow_24_1329" result="shape"/>
</filter>
<clipPath id="clip0_24_1329">
<rect width="376" height="215" fill="white"/>
</clipPath>
</defs>
</svg>
