<svg width="375" height="311" viewBox="0 0 375 311" fill="none" xmlns="http://www.w3.org/2000/svg">
<g filter="url(#filter0_i_456_7065)">
<rect width="375" height="311" fill="url(#paint0_linear_456_7065)"/>
<g clip-path="url(#clip0_456_7065)">
<g clip-path="url(#clip1_456_7065)">
<path fill-rule="evenodd" clip-rule="evenodd" d="M189.339 32.0341C192.814 32.0341 196.845 34.6071 196.845 40.05L196.813 40.8747H184.947C185.144 43.4148 186.979 44.9651 189.208 44.9651C191.142 44.9651 192.42 43.8437 193.109 42.4581L196.636 42.4669C196.636 42.5376 196.527 43.2751 196.133 43.9873C194.783 46.5327 192.207 48 189.372 48C184.423 48 181.145 44.3713 181.145 40.0171C181.145 35.6957 184.455 32.0341 189.339 32.0341ZM206.58 32.0341C210.055 32.0341 214.086 34.6071 214.086 40.05L214.054 40.8747H202.188C202.385 43.4148 204.22 44.9651 206.449 44.9651C208.383 44.9651 209.661 43.8437 210.35 42.4581L213.877 42.4669C213.877 42.5376 213.768 43.2751 213.374 43.9873C212.024 46.5327 209.448 48 206.613 48C201.663 48 198.386 44.3713 198.386 40.0171C198.386 35.6957 201.696 32.0341 206.58 32.0341ZM237.682 32.0007C239.485 32.0243 241.572 32.7809 242.861 34.4802L242.869 32.5264L246.127 32.5356V41.6182H246.132C246.132 41.6182 246.125 42.8348 246.121 44.2213C246.122 44.2213 246.123 44.2214 246.124 44.2214V47.8422L245.219 47.8377C243.799 47.8377 242.758 47.0808 242.438 45.8749C241.1 47.2749 239.145 47.987 237.477 47.9653C233.085 47.9079 229.951 44.3041 230.008 39.8841C230.065 35.4972 233.291 31.9433 237.682 32.0007ZM172.957 32.0798C176.923 32.0798 179.545 34.9497 179.545 39.0072V47.551H175.808V39.4031C175.808 36.8631 174.464 35.2467 172.072 35.2467C170.023 35.2467 167.798 36.9586 167.798 39.0989C167.806 39.3005 167.747 47.2243 167.745 47.5411L167.745 47.551H164.008L164 32.5625L164.905 32.5669C166.248 32.5669 167.251 33.3003 167.632 34.3894C169.043 32.9875 170.851 32.0798 172.957 32.0798ZM217.611 32.529L222.101 42.4911L226.623 32.529H230.72L223.543 47.5053H220.691L213.514 32.529H217.611ZM238.199 35.1745C235.544 35.1398 233.812 37.2946 233.778 39.9335C233.743 42.6051 235.42 44.7714 238.075 44.8061C240.664 44.84 242.395 42.7511 242.43 40.0464C242.465 37.3746 240.788 35.2083 238.199 35.1745ZM189.241 34.871C187.045 34.871 185.439 36.4214 185.176 38.4006H193.076C192.846 36.3225 191.339 34.871 189.241 34.871ZM206.482 34.871C204.286 34.871 202.679 36.4214 202.417 38.4006H210.317C210.087 36.3225 208.58 34.871 206.482 34.871Z" fill="white"/>
</g>
<rect x="120" y="24" width="32" height="32" rx="16" fill="white"/>
<rect x="119.5" y="23.5" width="33" height="33" rx="16.5" stroke="#767680" stroke-opacity="0.12"/>
<g clip-path="url(#clip2_456_7065)">
<path d="M137.991 31.2192C137.991 31.3529 137.982 31.4867 137.973 31.6115C137.865 33.3779 137.306 35.0874 136.351 36.5771V36.6217C138.043 36.6221 139.435 38.0143 139.435 39.7063V47.1235H145.253V39.9648C145.246 35.6999 142.179 32.0082 137.987 31.2192" fill="#415AFF"/>
<path d="M126.785 39.7776C126.776 39.9291 126.767 40.0807 126.767 40.2322C131.973 40.5443 136.431 36.6573 136.743 31.5401C136.752 31.3886 136.761 31.237 136.761 31.0855C131.563 30.7735 127.097 34.6604 126.785 39.7776Z" fill="#73A8FF"/>
<path d="M132.579 41.3111H126.758V47.1326H132.579V41.3111Z" fill="#415AFF"/>
</g>
<path opacity="0.3" d="M64 120C64 97.9086 81.9086 80 104 80H843V672H64V120Z" fill="#528FF3"/>
<rect opacity="0.3" x="171" y="105" width="662" height="60" rx="30" fill="white"/>
<g filter="url(#filter1_d_456_7065)">
<rect x="89" y="105" width="60" height="60" rx="20" fill="white"/>
</g>
<path d="M106.565 142.956C113.55 139.747 118.4 132.69 118.4 124.5C118.4 123.236 118.285 122 118.064 120.8C118.076 120.8 118.088 120.8 118.1 120.8C118.314 120.8 118.528 120.82 118.742 120.861C118.956 120.902 119.165 120.953 119.368 121.014C119.725 121.136 120.209 121.31 120.82 121.534C121.441 121.748 122.124 121.993 122.868 122.268C123.622 122.543 124.37 122.818 125.114 123.094C125.868 123.369 126.556 123.624 127.177 123.858C127.798 124.093 128.287 124.287 128.644 124.439C129.286 124.704 129.77 125.01 130.096 125.357C130.432 125.704 130.6 126.269 130.6 127.054V138.584C130.6 139.961 130.406 141.169 130.019 142.208C129.632 143.238 128.995 144.201 128.109 145.099C127.233 145.996 126.056 146.903 124.579 147.821C123.112 148.738 121.289 149.768 119.109 150.909C118.915 151.011 118.727 151.083 118.543 151.124C118.37 151.175 118.222 151.2 118.1 151.2C117.978 151.2 117.825 151.175 117.642 151.124C117.468 151.083 117.285 151.011 117.091 150.909C114.962 149.696 113.159 148.626 111.682 147.698C110.215 146.77 109.033 145.873 108.137 145.007C107.482 144.359 106.958 143.676 106.565 142.956Z" fill="white"/>
<path d="M106.565 142.956C113.55 139.747 118.4 132.69 118.4 124.5C118.4 123.236 118.285 122 118.064 120.8C117.862 120.802 117.66 120.823 117.458 120.861C117.254 120.902 117.051 120.953 116.847 121.014C116.49 121.136 116.001 121.31 115.38 121.534C114.759 121.748 114.071 121.993 113.317 122.268C112.573 122.533 111.825 122.808 111.071 123.094C110.327 123.369 109.644 123.629 109.023 123.874C108.402 124.108 107.913 124.297 107.556 124.439C106.924 124.694 106.44 125 106.104 125.357C105.768 125.704 105.6 126.269 105.6 127.054V138.584C105.6 139.961 105.799 141.158 106.196 142.178C106.303 142.442 106.426 142.701 106.565 142.956Z" fill="#415AFF"/>
<path d="M118.3 151.6C118.422 151.6 118.575 151.574 118.758 151.523C118.942 151.472 119.13 151.395 119.324 151.293C121.504 150.065 123.338 148.976 124.826 148.024C126.323 147.083 127.526 146.167 128.432 145.277C129.339 144.387 129.991 143.425 130.389 142.392C130.796 141.348 131 140.126 131 138.724V126.984C131 126.176 130.832 125.598 130.496 125.25C130.159 124.902 129.665 124.59 129.013 124.314C128.657 124.16 128.163 123.966 127.531 123.731C126.899 123.485 126.201 123.224 125.437 122.948C124.683 122.662 123.924 122.38 123.16 122.104C122.396 121.828 121.698 121.577 121.066 121.352C120.435 121.127 119.94 120.953 119.584 120.83C119.38 120.769 119.166 120.718 118.942 120.677C118.728 120.626 118.514 120.6 118.3 120.6C118.086 120.6 117.872 120.626 117.658 120.677C117.444 120.728 117.235 120.779 117.032 120.83C116.665 120.932 116.166 121.096 115.534 121.321C114.902 121.536 114.204 121.787 113.44 122.073C112.686 122.349 111.927 122.631 111.163 122.917C110.399 123.204 109.701 123.47 109.069 123.715C108.438 123.961 107.943 124.16 107.587 124.314C106.945 124.58 106.451 124.892 106.104 125.25C105.768 125.598 105.6 126.176 105.6 126.984V138.724C105.6 140.126 105.804 141.343 106.211 142.377C106.619 143.41 107.276 144.372 108.183 145.262C109.09 146.152 110.287 147.073 111.774 148.024C113.272 148.976 115.106 150.065 117.276 151.293C117.47 151.395 117.658 151.472 117.842 151.523C118.025 151.574 118.178 151.6 118.3 151.6ZM118.3 148.822C118.178 148.822 118.045 148.792 117.903 148.73C117.76 148.679 117.577 148.587 117.352 148.454C115.59 147.38 114.107 146.459 112.905 145.692C111.713 144.914 110.76 144.177 110.047 143.482C109.334 142.776 108.82 142.008 108.504 141.18C108.188 140.351 108.03 139.343 108.03 138.156V127.46C108.03 127.204 108.061 127.015 108.122 126.892C108.193 126.759 108.336 126.652 108.55 126.57C109.008 126.386 109.543 126.181 110.154 125.956C110.766 125.731 111.413 125.496 112.095 125.25C112.778 125.004 113.46 124.764 114.143 124.529C114.826 124.283 115.473 124.048 116.084 123.823C116.695 123.598 117.23 123.393 117.689 123.209C117.811 123.158 117.923 123.122 118.025 123.101C118.127 123.081 118.218 123.071 118.3 123.071C118.382 123.071 118.473 123.081 118.575 123.101C118.677 123.122 118.789 123.158 118.911 123.209C119.37 123.393 119.905 123.603 120.516 123.838C121.127 124.063 121.769 124.304 122.442 124.559C123.124 124.805 123.802 125.05 124.474 125.296C125.157 125.542 125.804 125.777 126.415 126.002C127.037 126.217 127.587 126.406 128.066 126.57C128.269 126.641 128.402 126.744 128.463 126.877C128.534 127.01 128.57 127.204 128.57 127.46V138.156C128.57 139.343 128.412 140.351 128.096 141.18C127.791 142.008 127.276 142.771 126.553 143.466C125.84 144.162 124.882 144.899 123.68 145.676C122.487 146.454 121.01 147.38 119.248 148.454C119.023 148.587 118.84 148.679 118.697 148.73C118.555 148.792 118.422 148.822 118.3 148.822Z" fill="#415AFF"/>
<line x1="211.5" y1="134.5" x2="857.5" y2="134.5" stroke="#9BC7F8" stroke-width="3" stroke-linecap="round"/>
<g filter="url(#filter2_d_456_7065)">
<path d="M89 195C89 183.954 97.9543 175 109 175H394C405.046 175 414 183.954 414 195V417C414 428.046 405.046 437 394 437H109C97.9543 437 89 428.046 89 417V195Z" fill="white"/>
</g>
<path d="M128.648 216.617C133.18 216.617 136.898 212.891 136.898 208.359C136.898 203.836 133.172 200.109 128.648 200.109C124.117 200.109 120.398 203.836 120.398 208.359C120.398 212.891 124.125 216.617 128.648 216.617ZM127.789 212.281C127.438 212.281 127.164 212.125 126.914 211.82L125.078 209.633C124.898 209.414 124.828 209.219 124.828 208.992C124.828 208.508 125.219 208.125 125.695 208.125C125.977 208.125 126.195 208.234 126.406 208.484L127.766 210.164L130.812 205.32C131.016 204.992 131.273 204.828 131.578 204.828C132.047 204.828 132.477 205.172 132.477 205.656C132.477 205.852 132.398 206.062 132.258 206.266L128.633 211.812C128.43 212.109 128.125 212.281 127.789 212.281ZM147.109 214H149.586L150.422 211.266H154.398L155.234 214H157.719L153.797 202.727H151.023L147.109 214ZM152.344 204.977H152.484L153.859 209.5H150.961L152.344 204.977ZM159.633 214H164.07C167.445 214 169.359 211.938 169.359 208.297V208.281C169.359 204.75 167.422 202.727 164.07 202.727H159.633V214ZM161.992 212.055V204.672H163.695C165.742 204.672 166.953 206 166.953 208.32V208.336C166.953 210.742 165.781 212.055 163.695 212.055H161.992ZM175.633 214.289C178.445 214.289 180.18 212.875 180.18 210.641V210.633C180.18 208.875 179.141 207.922 176.758 207.43L175.562 207.188C174.234 206.914 173.688 206.477 173.688 205.742V205.734C173.688 204.891 174.461 204.359 175.625 204.352C176.812 204.352 177.594 204.914 177.727 205.719L177.742 205.812H179.961L179.953 205.711C179.805 203.828 178.258 202.438 175.625 202.438C173.125 202.438 171.328 203.82 171.328 205.914V205.922C171.328 207.633 172.336 208.727 174.68 209.203L175.867 209.445C177.266 209.734 177.82 210.148 177.82 210.891V210.898C177.82 211.766 176.953 212.367 175.695 212.367C174.375 212.367 173.461 211.797 173.375 210.953L173.367 210.875H171.094L171.102 211C171.234 213 172.938 214.289 175.633 214.289ZM182.328 210.477H187.523V208.422H182.328V210.477ZM190.164 214H192.523V209.562H197.109V207.695H192.523V204.672H197.547V202.727H190.164V214ZM199.727 214H202.086V209.875H204.016L206.117 214H208.789L206.414 209.523C207.703 209.016 208.453 207.773 208.453 206.328V206.312C208.453 204.094 206.984 202.727 204.422 202.727H199.727V214ZM202.086 208.156V204.57H204.133C205.312 204.57 206.039 205.273 206.039 206.359V206.375C206.039 207.484 205.344 208.156 204.164 208.156H202.086ZM210.836 214H218.305V212.055H213.195V209.203H218.016V207.391H213.195V204.672H218.305V202.727H210.836V214ZM220.789 214H228.258V212.055H223.148V209.203H227.969V207.391H223.148V204.672H228.258V202.727H220.789V214ZM232.156 214.195C232.961 214.195 233.531 213.609 233.531 212.836C233.531 212.062 232.961 211.484 232.156 211.484C231.359 211.484 230.781 212.062 230.781 212.836C230.781 213.609 231.359 214.195 232.156 214.195ZM240.43 214H242.688V206.789H242.812L248.031 214H249.984V202.727H247.727V209.906H247.602L242.398 202.727H240.43V214ZM257.656 214.289C260.984 214.289 263.078 212.008 263.078 208.367V208.352C263.078 204.711 260.977 202.438 257.656 202.438C254.336 202.438 252.227 204.703 252.227 208.352V208.367C252.227 212.008 254.305 214.289 257.656 214.289ZM257.656 212.289C255.797 212.289 254.633 210.75 254.633 208.367V208.352C254.633 205.961 255.82 204.438 257.656 204.438C259.484 204.438 260.672 205.961 260.672 208.352V208.367C260.672 210.75 259.492 212.289 257.656 212.289ZM272.18 214H274.539V204.672H277.922V202.727H268.797V204.672H272.18V214ZM280.008 214H282.367V209.875H284.297L286.398 214H289.07L286.695 209.523C287.984 209.016 288.734 207.773 288.734 206.328V206.312C288.734 204.094 287.266 202.727 284.703 202.727H280.008V214ZM282.367 208.156V204.57H284.414C285.594 204.57 286.32 205.273 286.32 206.359V206.375C286.32 207.484 285.625 208.156 284.445 208.156H282.367ZM290.312 214H292.789L293.625 211.266H297.602L298.438 214H300.922L297 202.727H294.227L290.312 214ZM295.547 204.977H295.688L297.062 209.5H294.164L295.547 204.977ZM307.109 214.289C309.828 214.289 311.758 212.68 312 210.32L312.008 210.234H309.711L309.695 210.297C309.445 211.5 308.469 212.289 307.117 212.289C305.336 212.289 304.234 210.789 304.234 208.367V208.352C304.234 205.93 305.336 204.438 307.109 204.438C308.453 204.438 309.461 205.297 309.703 206.562V206.617H312V206.523C311.781 204.141 309.781 202.438 307.109 202.438C303.836 202.438 301.82 204.695 301.82 208.352V208.367C301.82 212.023 303.844 214.289 307.109 214.289ZM314.18 214H316.539V210.555L317.656 209.211L320.93 214H323.758L319.359 207.664L323.469 202.727H320.844L316.68 207.789H316.539V202.727H314.18V214ZM325.539 214H333.008V212.055H327.898V209.203H332.719V207.391H327.898V204.672H333.008V202.727H325.539V214ZM335.492 214H337.852V209.875H339.781L341.883 214H344.555L342.18 209.523C343.469 209.016 344.219 207.773 344.219 206.328V206.312C344.219 204.094 342.75 202.727 340.188 202.727H335.492V214ZM337.852 208.156V204.57H339.898C341.078 204.57 341.805 205.273 341.805 206.359V206.375C341.805 207.484 341.109 208.156 339.93 208.156H337.852ZM350.633 214.289C353.445 214.289 355.18 212.875 355.18 210.641V210.633C355.18 208.875 354.141 207.922 351.758 207.43L350.562 207.188C349.234 206.914 348.688 206.477 348.688 205.742V205.734C348.688 204.891 349.461 204.359 350.625 204.352C351.812 204.352 352.594 204.914 352.727 205.719L352.742 205.812H354.961L354.953 205.711C354.805 203.828 353.258 202.438 350.625 202.438C348.125 202.438 346.328 203.82 346.328 205.914V205.922C346.328 207.633 347.336 208.727 349.68 209.203L350.867 209.445C352.266 209.734 352.82 210.148 352.82 210.891V210.898C352.82 211.766 351.953 212.367 350.695 212.367C349.375 212.367 348.461 211.797 348.375 210.953L348.367 210.875H346.094L346.102 211C346.234 213 347.938 214.289 350.633 214.289Z" fill="#737980"/>
<rect opacity="0.3" x="245.2" y="234" width="41" height="28" rx="14" fill="#CDDAEA"/>
<path d="M253.61 253H254.987L255.755 250.715H258.989L259.751 253H261.134L258.081 244.545H256.663L253.61 253ZM257.319 246.027H257.419L258.638 249.66H256.106L257.319 246.027ZM262.604 253H265.657C268.177 253 269.636 251.441 269.636 248.758V248.746C269.636 246.092 268.165 244.545 265.657 244.545H262.604V253ZM263.917 251.869V245.676H265.511C267.263 245.676 268.3 246.818 268.3 248.764V248.775C268.3 250.738 267.28 251.869 265.511 251.869H263.917ZM274.276 253.205C276.245 253.205 277.505 252.197 277.505 250.58V250.574C277.505 249.32 276.778 248.605 275.003 248.225L274.083 248.02C272.987 247.785 272.542 247.375 272.542 246.748V246.742C272.542 245.945 273.274 245.482 274.264 245.482C275.29 245.477 275.952 245.98 276.063 246.672L276.075 246.748H277.346L277.341 246.666C277.247 245.354 276.075 244.34 274.282 244.34C272.489 244.34 271.223 245.348 271.218 246.807V246.812C271.218 248.061 271.956 248.857 273.673 249.221L274.598 249.42C275.718 249.66 276.175 250.082 276.175 250.732V250.738C276.175 251.523 275.407 252.062 274.329 252.062C273.198 252.062 272.384 251.57 272.313 250.803L272.307 250.738H271.018L271.024 250.814C271.141 252.238 272.366 253.205 274.276 253.205Z" fill="#434E6B" fill-opacity="0.75"/>
<rect opacity="0.3" x="245.2" y="266" width="117" height="28" rx="14" fill="#CDDAEA"/>
<path d="M275.405 285H276.718V277.676H279.372V276.545H272.745V277.676H275.405V285ZM280.983 285H282.296V281.748H284.147L285.87 285H287.388L285.489 281.543C286.52 281.197 287.13 280.271 287.13 279.135V279.123C287.13 277.553 286.052 276.545 284.317 276.545H280.983V285ZM282.296 280.682V277.646H284.147C285.161 277.646 285.782 278.221 285.782 279.158V279.17C285.782 280.131 285.196 280.682 284.188 280.682H282.296ZM288.348 285H289.725L290.493 282.715H293.727L294.489 285H295.872L292.819 276.545H291.401L288.348 285ZM292.057 278.027H292.157L293.376 281.66H290.845L292.057 278.027ZM300.413 285.205C302.3 285.205 303.677 284.127 303.923 282.504V282.469H302.622L302.61 282.492C302.37 283.447 301.532 284.045 300.413 284.045C298.889 284.045 297.94 282.785 297.94 280.781V280.77C297.94 278.76 298.889 277.5 300.407 277.5C301.52 277.5 302.37 278.174 302.616 279.211V279.229H303.917L303.923 279.199C303.7 277.518 302.27 276.34 300.407 276.34C298.057 276.34 296.598 278.039 296.598 280.77V280.781C296.598 283.506 298.063 285.205 300.413 285.205ZM305.651 285H306.964V282.182L307.913 281.104L310.749 285H312.389L308.839 280.213L312.108 276.545H310.555L307.057 280.541H306.964V276.545H305.651V285ZM313.772 285H319.139V283.869H315.085V281.238H318.923V280.148H315.085V277.676H319.139V276.545H313.772V285ZM321.038 285H322.35V281.748H324.202L325.925 285H327.442L325.544 281.543C326.575 281.197 327.184 280.271 327.184 279.135V279.123C327.184 277.553 326.106 276.545 324.372 276.545H321.038V285ZM322.35 280.682V277.646H324.202C325.216 277.646 325.837 278.221 325.837 279.158V279.17C325.837 280.131 325.251 280.682 324.243 280.682H322.35ZM331.913 285.205C333.882 285.205 335.141 284.197 335.141 282.58V282.574C335.141 281.32 334.415 280.605 332.639 280.225L331.72 280.02C330.624 279.785 330.179 279.375 330.179 278.748V278.742C330.179 277.945 330.911 277.482 331.901 277.482C332.927 277.477 333.589 277.98 333.7 278.672L333.712 278.748H334.983L334.977 278.666C334.884 277.354 333.712 276.34 331.919 276.34C330.126 276.34 328.86 277.348 328.854 278.807V278.812C328.854 280.061 329.593 280.857 331.309 281.221L332.235 281.42C333.354 281.66 333.811 282.082 333.811 282.732V282.738C333.811 283.523 333.044 284.062 331.966 284.062C330.835 284.062 330.02 283.57 329.95 282.803L329.944 282.738H328.655L328.661 282.814C328.778 284.238 330.003 285.205 331.913 285.205Z" fill="#434E6B" fill-opacity="0.75"/>
<rect opacity="0.3" x="290.2" y="234" width="72" height="28" rx="14" fill="#CDDAEA"/>
<path d="M299.261 253H300.573V250.111H302.554C304.212 250.111 305.36 248.98 305.36 247.328V247.316C305.36 245.658 304.212 244.545 302.554 244.545H299.261V253ZM302.225 245.652C303.362 245.652 304.024 246.268 304.024 247.322V247.334C304.024 248.395 303.362 249.01 302.225 249.01H300.573V245.652H302.225ZM310.657 253.205C313.1 253.205 314.6 251.482 314.6 248.775V248.764C314.6 246.051 313.089 244.34 310.657 244.34C308.231 244.34 306.708 246.045 306.708 248.764V248.775C306.708 251.488 308.196 253.205 310.657 253.205ZM310.657 252.045C309.028 252.045 308.05 250.756 308.05 248.775V248.764C308.05 246.766 309.057 245.5 310.657 245.5C312.257 245.5 313.259 246.766 313.259 248.764V248.775C313.259 250.756 312.263 252.045 310.657 252.045ZM316.382 253H317.694V250.111H319.675C321.333 250.111 322.481 248.98 322.481 247.328V247.316C322.481 245.658 321.333 244.545 319.675 244.545H316.382V253ZM319.346 245.652C320.483 245.652 321.145 246.268 321.145 247.322V247.334C321.145 248.395 320.483 249.01 319.346 249.01H317.694V245.652H319.346ZM324.011 250.176H327.93V249.01H324.011V250.176ZM333.309 253.205C335.436 253.205 336.731 251.945 336.731 250.088V244.545H335.419V249.988C335.419 251.213 334.657 252.045 333.309 252.045C331.962 252.045 331.194 251.213 331.194 249.988V244.545H329.882V250.088C329.882 251.945 331.188 253.205 333.309 253.205ZM338.846 253H340.159V250.111H342.139C343.798 250.111 344.946 248.98 344.946 247.328V247.316C344.946 245.658 343.798 244.545 342.139 244.545H338.846V253ZM341.811 245.652C342.948 245.652 343.61 246.268 343.61 247.322V247.334C343.61 248.395 342.948 249.01 341.811 249.01H340.159V245.652H341.811ZM349.499 253.205C351.468 253.205 352.727 252.197 352.727 250.58V250.574C352.727 249.32 352.001 248.605 350.225 248.225L349.305 248.02C348.21 247.785 347.764 247.375 347.764 246.748V246.742C347.764 245.945 348.497 245.482 349.487 245.482C350.513 245.477 351.175 245.98 351.286 246.672L351.298 246.748H352.569L352.563 246.666C352.47 245.354 351.298 244.34 349.505 244.34C347.712 244.34 346.446 245.348 346.44 246.807V246.812C346.44 248.061 347.179 248.857 348.895 249.221L349.821 249.42C350.94 249.66 351.397 250.082 351.397 250.732V250.738C351.397 251.523 350.63 252.062 349.552 252.062C348.421 252.062 347.606 251.57 347.536 250.803L347.53 250.738H346.241L346.247 250.814C346.364 252.238 347.589 253.205 349.499 253.205Z" fill="#434E6B" fill-opacity="0.75"/>
<g clip-path="url(#clip3_456_7065)">
<path d="M160.741 265.086C160.741 263.664 160.615 262.314 160.399 261H140.059V269.118H151.705C151.183 271.782 149.653 274.032 147.385 275.562V280.962H154.333C158.401 277.2 160.741 271.656 160.741 265.086Z" fill="#CEDAEA"/>
<path d="M140.059 286.2C145.891 286.2 150.769 284.256 154.333 280.962L147.385 275.562C145.441 276.858 142.975 277.65 140.059 277.65C134.425 277.65 129.655 273.852 127.945 268.722H120.781V274.284C124.327 281.34 131.617 286.2 140.059 286.2Z" fill="#CEDAEA"/>
<path d="M127.945 268.722C127.495 267.426 127.261 266.04 127.261 264.6C127.261 263.16 127.513 261.774 127.945 260.478V254.916H120.781C119.305 257.832 118.459 261.108 118.459 264.6C118.459 268.092 119.305 271.368 120.781 274.284L127.945 268.722Z" fill="#CEDAEA"/>
<path d="M140.059 251.55C143.245 251.55 146.089 252.648 148.339 254.79L154.495 248.634C150.769 245.142 145.891 243 140.059 243C131.617 243 124.327 247.86 120.781 254.916L127.945 260.478C129.655 255.348 134.425 251.55 140.059 251.55Z" fill="#CEDAEA"/>
</g>
<rect x="176" y="243" width="43.2" height="43.2" rx="2.85" fill="#CEDAEA"/>
<path fill-rule="evenodd" clip-rule="evenodd" d="M212.868 264.836C208.729 267.887 202.729 269.515 197.563 269.515C190.321 269.515 183.8 266.836 178.867 262.38C178.48 262.03 178.827 261.552 179.292 261.825C184.616 264.923 191.198 266.786 197.998 266.786C202.583 266.786 207.628 265.837 212.266 263.869C212.967 263.571 213.553 264.327 212.868 264.836Z" fill="white"/>
<path fill-rule="evenodd" clip-rule="evenodd" d="M214.589 262.867C214.062 262.191 211.091 262.548 209.758 262.706C209.352 262.755 209.29 262.402 209.656 262.148C212.021 260.483 215.903 260.963 216.356 261.521C216.809 262.083 216.238 265.974 214.015 267.831C213.674 268.116 213.348 267.964 213.5 267.586C214 266.34 215.119 263.546 214.589 262.867Z" fill="white"/>
</g>
</g>
<defs>
<filter id="filter0_i_456_7065" x="0" y="0" width="375" height="311" filterUnits="userSpaceOnUse" color-interpolation-filters="sRGB">
<feFlood flood-opacity="0" result="BackgroundImageFix"/>
<feBlend mode="normal" in="SourceGraphic" in2="BackgroundImageFix" result="shape"/>
<feColorMatrix in="SourceAlpha" type="matrix" values="0 0 0 0 0 0 0 0 0 0 0 0 0 0 0 0 0 0 127 0" result="hardAlpha"/>
<feOffset/>
<feGaussianBlur stdDeviation="2"/>
<feComposite in2="hardAlpha" operator="arithmetic" k2="-1" k3="1"/>
<feColorMatrix type="matrix" values="0 0 0 0 0.334219 0 0 0 0 0.492703 0 0 0 0 0.8625 0 0 0 0.15 0"/>
<feBlend mode="normal" in2="shape" result="effect1_innerShadow_456_7065"/>
</filter>
<filter id="filter1_d_456_7065" x="81" y="97" width="76" height="76" filterUnits="userSpaceOnUse" color-interpolation-filters="sRGB">
<feFlood flood-opacity="0" result="BackgroundImageFix"/>
<feColorMatrix in="SourceAlpha" type="matrix" values="0 0 0 0 0 0 0 0 0 0 0 0 0 0 0 0 0 0 127 0" result="hardAlpha"/>
<feOffset/>
<feGaussianBlur stdDeviation="4"/>
<feComposite in2="hardAlpha" operator="out"/>
<feColorMatrix type="matrix" values="0 0 0 0 0.3003 0 0 0 0 0.534018 0 0 0 0 0.91 0 0 0 1 0"/>
<feBlend mode="normal" in2="BackgroundImageFix" result="effect1_dropShadow_456_7065"/>
<feBlend mode="normal" in="SourceGraphic" in2="effect1_dropShadow_456_7065" result="shape"/>
</filter>
<filter id="filter2_d_456_7065" x="81" y="167" width="341" height="278" filterUnits="userSpaceOnUse" color-interpolation-filters="sRGB">
<feFlood flood-opacity="0" result="BackgroundImageFix"/>
<feColorMatrix in="SourceAlpha" type="matrix" values="0 0 0 0 0 0 0 0 0 0 0 0 0 0 0 0 0 0 127 0" result="hardAlpha"/>
<feOffset/>
<feGaussianBlur stdDeviation="4"/>
<feComposite in2="hardAlpha" operator="out"/>
<feColorMatrix type="matrix" values="0 0 0 0 0.3003 0 0 0 0 0.534018 0 0 0 0 0.91 0 0 0 0.5 0"/>
<feBlend mode="normal" in2="BackgroundImageFix" result="effect1_dropShadow_456_7065"/>
<feBlend mode="normal" in="SourceGraphic" in2="effect1_dropShadow_456_7065" result="shape"/>
</filter>
<linearGradient id="paint0_linear_456_7065" x1="187.5" y1="-229" x2="187.5" y2="329" gradientUnits="userSpaceOnUse">
<stop stop-color="#4D88E8"/>
<stop offset="1" stop-color="#DAF9FF"/>
</linearGradient>
<clipPath id="clip0_456_7065">
<rect width="311" height="287" fill="white" transform="translate(64 24)"/>
</clipPath>
<clipPath id="clip1_456_7065">
<rect width="82.2479" height="16" fill="white" transform="translate(164 32)"/>
</clipPath>
<clipPath id="clip2_456_7065">
<rect width="18.495" height="18.495" fill="white" transform="translate(126.758 29.9486)"/>
</clipPath>
<clipPath id="clip3_456_7065">
<rect width="43.2" height="43.2" fill="white" transform="translate(118 243)"/>
</clipPath>
</defs>
</svg>
