<svg width="30" height="36" viewBox="0 0 30 36" fill="none" xmlns="http://www.w3.org/2000/svg">
<path d="M1.27297 25.5838C1.48193 26.1139 2.10596 26.3181 2.61037 26.0531C10.1997 22.0662 15.393 13.9721 15.393 4.63569C15.393 3.38147 15.2993 2.14966 15.1186 0.947221C15.0581 0.544638 14.7029 0.245712 14.3033 0.323715C14.0676 0.372036 13.8319 0.432438 13.5961 0.50492C13.1836 0.649885 12.6178 0.855251 11.8988 1.12102C11.1798 1.37471 10.3842 1.66464 9.51198 1.99081C8.65154 2.3049 7.78521 2.63107 6.91298 2.96932C6.05254 3.29549 5.26282 3.60354 4.54382 3.89347C3.82482 4.17132 3.25905 4.3948 2.84651 4.56393C2.11573 4.86594 1.55585 5.22835 1.16688 5.65116C0.777918 6.0619 0.583435 6.73236 0.583435 7.66255V21.3255C0.583435 22.9563 0.813279 24.3758 1.27297 25.5838Z" fill="url(#paint0_linear_111_759)"/>
<path d="M14.9 36C15.0386 36 15.2119 35.9703 15.4199 35.9109C15.6278 35.8515 15.8415 35.7624 16.061 35.6436C18.5332 34.2178 20.6126 32.9525 22.2993 31.8475C23.9975 30.7545 25.3606 29.6911 26.3888 28.6574C27.417 27.6238 28.1563 26.5069 28.6069 25.3069C29.069 24.095 29.3 22.6752 29.3 21.0475V7.41386C29.3 6.47525 29.1094 5.80396 28.7282 5.4C28.3469 4.99604 27.7866 4.63366 27.0473 4.31287C26.643 4.13465 26.0827 3.90891 25.3664 3.63564C24.6502 3.3505 23.8588 3.04752 22.9924 2.72673C22.1375 2.39406 21.2769 2.06733 20.4105 1.74653C19.544 1.42574 18.7527 1.13465 18.0365 0.873267C17.3202 0.611881 16.7599 0.409901 16.3556 0.267327C16.1245 0.19604 15.8819 0.136634 15.6278 0.0891089C15.3852 0.029703 15.1426 0 14.9 0C14.6574 0 14.4148 0.029703 14.1722 0.0891089C13.9296 0.148515 13.6928 0.207921 13.4617 0.267327C13.0458 0.386139 12.4798 0.576238 11.7635 0.837624C11.0473 1.08713 10.256 1.37822 9.38953 1.71089C8.53466 2.03168 7.67401 2.35842 6.80758 2.69109C5.94116 3.02376 5.14982 3.33267 4.43357 3.61782C3.71733 3.90297 3.15704 4.13465 2.75271 4.31287C2.02491 4.62178 1.46462 4.98416 1.07184 5.4C0.690614 5.80396 0.5 6.47525 0.5 7.41386V21.0475C0.5 22.6752 0.731047 24.0891 1.19314 25.2891C1.65523 26.4891 2.40036 27.6059 3.42852 28.6396C4.45668 29.6733 5.81408 30.7426 7.50072 31.8475C9.19892 32.9525 11.2783 34.2178 13.739 35.6436C13.9585 35.7624 14.1722 35.8515 14.3801 35.9109C14.5881 35.9703 14.7614 36 14.9 36ZM14.9 32.7743C14.7614 32.7743 14.6112 32.7386 14.4495 32.6673C14.2877 32.6079 14.0798 32.501 13.8256 32.3465C11.8271 31.099 10.1462 30.0297 8.78303 29.1386C7.43141 28.2356 6.35126 27.3802 5.5426 26.5723C4.73393 25.7525 4.15054 24.8614 3.79242 23.899C3.4343 22.9366 3.25523 21.7663 3.25523 20.3881V7.96634C3.25523 7.66931 3.28989 7.44951 3.35921 7.30693C3.44007 7.15248 3.60181 7.02772 3.8444 6.93267C4.36426 6.71881 4.97076 6.48119 5.6639 6.2198C6.35704 5.95842 7.09061 5.68515 7.86462 5.4C8.63863 5.11485 9.41264 4.83564 10.1866 4.56238C10.9606 4.27723 11.6942 4.00396 12.3874 3.74257C13.0805 3.48119 13.687 3.24356 14.2069 3.0297C14.3455 2.9703 14.4726 2.92871 14.5881 2.90495C14.7036 2.88119 14.8076 2.86931 14.9 2.86931C14.9924 2.86931 15.0964 2.88119 15.2119 2.90495C15.3274 2.92871 15.4545 2.9703 15.5931 3.0297C16.113 3.24356 16.7195 3.48713 17.4126 3.7604C18.1058 4.02178 18.8336 4.30099 19.596 4.59802C20.37 4.88317 21.1383 5.16832 21.9007 5.45347C22.6747 5.73861 23.4083 6.01188 24.1014 6.27327C24.8061 6.52277 25.43 6.74257 25.9729 6.93267C26.204 7.01584 26.3542 7.13465 26.4235 7.28911C26.5043 7.44356 26.5448 7.66931 26.5448 7.96634V20.3881C26.5448 21.7663 26.3657 22.9366 26.0076 23.899C25.661 24.8614 25.0776 25.7465 24.2574 26.5545C23.4487 27.3624 22.3628 28.2178 20.9996 29.1208C19.648 30.0238 17.9729 31.099 15.9744 32.3465C15.7202 32.501 15.5123 32.6079 15.3505 32.6673C15.1888 32.7386 15.0386 32.7743 14.9 32.7743Z" fill="url(#paint1_linear_111_759)"/>
<defs>
<linearGradient id="paint0_linear_111_759" x1="7.98822" y1="0.251465" x2="7.98822" y2="26.5062" gradientUnits="userSpaceOnUse">
<stop stop-color="#0083FF"/>
<stop offset="0.494792" stop-color="#016CFF"/>
<stop offset="1" stop-color="#0159FF"/>
</linearGradient>
<linearGradient id="paint1_linear_111_759" x1="14.9" y1="0" x2="14.9" y2="36" gradientUnits="userSpaceOnUse">
<stop stop-color="#0083FF"/>
<stop offset="0.494792" stop-color="#0067FF"/>
<stop offset="1" stop-color="#0044FF"/>
</linearGradient>
</defs>
</svg>
