<?xml version="1.0" encoding="UTF-8" standalone="no"?>
<!DOCTYPE svg PUBLIC "-//W3C//DTD SVG 1.1//EN" "http://www.w3.org/Graphics/SVG/1.1/DTD/svg11.dtd">
<svg width="100%" height="100%" viewBox="0 0 50 50" version="1.1" xmlns="http://www.w3.org/2000/svg" xmlns:xlink="http://www.w3.org/1999/xlink" xml:space="preserve" xmlns:serif="http://www.serif.com/" style="fill-rule:evenodd;clip-rule:evenodd;stroke-linejoin:round;stroke-miterlimit:2;">
    <circle cx="25" cy="25" r="24.39" style="fill:white;"/>
    <path d="M18.598,45.122C20.61,45.732 22.683,46.098 24.878,46.098C36.585,46.098 46.098,36.585 46.098,24.878C46.098,13.171 36.585,3.659 24.878,3.659C13.171,3.659 3.659,13.171 3.659,24.878C3.659,33.902 9.329,41.646 17.317,44.695C17.134,43.049 16.951,40.305 17.317,38.415L19.756,27.927C19.756,27.927 19.146,26.707 19.146,24.756C19.146,21.829 20.976,19.634 23.049,19.634C24.878,19.634 25.732,20.976 25.732,22.683C25.732,24.512 24.512,27.134 23.902,29.634C23.537,31.707 25,33.537 27.134,33.537C30.915,33.537 33.841,29.512 33.841,23.78C33.841,18.72 30.183,15.244 24.939,15.244C18.963,15.244 15.427,19.695 15.427,24.39C15.427,26.22 16.037,28.049 17.012,29.268C17.195,29.39 17.195,29.573 17.134,29.878L16.524,32.195C16.524,32.561 16.28,32.683 15.915,32.439C13.232,31.22 11.646,27.378 11.646,24.268C11.646,17.561 16.402,11.463 25.549,11.463C32.866,11.463 38.537,16.707 38.537,23.659C38.537,30.976 34.024,36.829 27.561,36.829C25.488,36.829 23.476,35.732 22.805,34.39L21.341,39.451C20.854,41.28 19.512,43.72 18.598,45.183L18.598,45.122Z" style="fill:rgb(230,0,35);"/>
</svg>
