<svg width="375" height="311" viewBox="0 0 375 311" fill="none" xmlns="http://www.w3.org/2000/svg">
<g filter="url(#filter0_i_456_6893)">
<rect width="375" height="311" fill="url(#paint0_linear_456_6893)"/>
<g clip-path="url(#clip0_456_6893)">
<g clip-path="url(#clip1_456_6893)">
<path fill-rule="evenodd" clip-rule="evenodd" d="M189.339 32.0341C192.814 32.0341 196.845 34.6071 196.845 40.05L196.813 40.8747H184.947C185.144 43.4148 186.979 44.9651 189.208 44.9651C191.142 44.9651 192.42 43.8437 193.109 42.4581L196.636 42.4669C196.636 42.5376 196.527 43.2751 196.133 43.9873C194.783 46.5327 192.207 48 189.372 48C184.423 48 181.145 44.3713 181.145 40.0171C181.145 35.6957 184.455 32.0341 189.339 32.0341ZM206.58 32.0341C210.055 32.0341 214.086 34.6071 214.086 40.05L214.054 40.8747H202.188C202.385 43.4148 204.22 44.9651 206.449 44.9651C208.383 44.9651 209.661 43.8437 210.35 42.4581L213.877 42.4669C213.877 42.5376 213.768 43.2751 213.374 43.9873C212.024 46.5327 209.448 48 206.613 48C201.663 48 198.386 44.3713 198.386 40.0171C198.386 35.6957 201.696 32.0341 206.58 32.0341ZM237.682 32.0007C239.485 32.0243 241.572 32.7809 242.861 34.4802L242.869 32.5264L246.127 32.5356V41.6182H246.132C246.132 41.6182 246.125 42.8348 246.121 44.2213C246.122 44.2213 246.123 44.2214 246.124 44.2214V47.8422L245.219 47.8377C243.799 47.8377 242.758 47.0808 242.438 45.8749C241.1 47.2749 239.145 47.987 237.477 47.9653C233.085 47.9079 229.951 44.3041 230.008 39.8841C230.065 35.4972 233.291 31.9433 237.682 32.0007ZM172.957 32.0798C176.923 32.0798 179.545 34.9497 179.545 39.0072V47.551H175.808V39.4031C175.808 36.8631 174.464 35.2467 172.072 35.2467C170.023 35.2467 167.798 36.9586 167.798 39.0989C167.806 39.3005 167.747 47.2243 167.745 47.5411L167.745 47.551H164.008L164 32.5625L164.905 32.5669C166.248 32.5669 167.251 33.3003 167.632 34.3894C169.043 32.9875 170.851 32.0798 172.957 32.0798ZM217.611 32.529L222.101 42.4911L226.623 32.529H230.72L223.543 47.5053H220.691L213.514 32.529H217.611ZM238.199 35.1745C235.544 35.1398 233.812 37.2946 233.778 39.9335C233.743 42.6051 235.42 44.7714 238.075 44.8061C240.664 44.84 242.395 42.7511 242.43 40.0464C242.465 37.3746 240.788 35.2083 238.199 35.1745ZM189.241 34.871C187.045 34.871 185.439 36.4214 185.176 38.4006H193.076C192.846 36.3225 191.339 34.871 189.241 34.871ZM206.482 34.871C204.286 34.871 202.679 36.4214 202.417 38.4006H210.317C210.087 36.3225 208.58 34.871 206.482 34.871Z" fill="white"/>
</g>
<rect x="120" y="24" width="32" height="32" rx="16" fill="white"/>
<rect x="119.5" y="23.5" width="33" height="33" rx="16.5" stroke="#767680" stroke-opacity="0.12"/>
<g clip-path="url(#clip2_456_6893)">
<path d="M137.991 31.2192C137.991 31.3529 137.982 31.4867 137.973 31.6115C137.865 33.3779 137.306 35.0874 136.351 36.5771V36.6217C138.043 36.6221 139.435 38.0143 139.435 39.7063V47.1235H145.253V39.9648C145.246 35.6999 142.179 32.0082 137.987 31.2192" fill="#415AFF"/>
<path d="M126.785 39.7776C126.776 39.9291 126.767 40.0807 126.767 40.2322C131.973 40.5443 136.431 36.6573 136.743 31.5401C136.752 31.3886 136.761 31.237 136.761 31.0855C131.563 30.7735 127.097 34.6604 126.785 39.7776Z" fill="#73A8FF"/>
<path d="M132.579 41.3111H126.758V47.1326H132.579V41.3111Z" fill="#415AFF"/>
</g>
<path opacity="0.3" d="M64 120C64 97.9086 81.9086 80 104 80H843V672H64V120Z" fill="#528FF3"/>
<rect opacity="0.3" x="171" y="105" width="662" height="60" rx="30" fill="white"/>
<rect opacity="0.3" x="89" y="105" width="60" height="60" rx="20" fill="white"/>
<path d="M107.565 142.956C114.55 139.747 119.4 132.69 119.4 124.5C119.4 123.236 119.285 122 119.064 120.8C119.076 120.8 119.088 120.8 119.1 120.8C119.314 120.8 119.528 120.82 119.742 120.861C119.956 120.902 120.165 120.953 120.368 121.014C120.725 121.136 121.209 121.31 121.82 121.534C122.441 121.748 123.124 121.993 123.868 122.268C124.622 122.543 125.37 122.819 126.114 123.094C126.868 123.369 127.556 123.624 128.177 123.858C128.798 124.093 129.287 124.287 129.644 124.439C130.286 124.705 130.77 125.01 131.096 125.357C131.432 125.704 131.6 126.269 131.6 127.054V138.584C131.6 139.961 131.406 141.169 131.019 142.208C130.632 143.238 129.995 144.201 129.109 145.099C128.233 145.996 127.056 146.903 125.579 147.821C124.112 148.738 122.289 149.768 120.109 150.909C119.915 151.011 119.727 151.083 119.543 151.124C119.37 151.175 119.222 151.2 119.1 151.2C118.978 151.2 118.825 151.175 118.642 151.124C118.468 151.083 118.285 151.011 118.091 150.909C115.962 149.696 114.159 148.626 112.682 147.698C111.215 146.771 110.033 145.873 109.137 145.007C108.482 144.359 107.958 143.676 107.565 142.956Z" fill="#B1D2F9"/>
<path d="M107.565 142.956C114.55 139.748 119.4 132.69 119.4 124.5C119.4 123.236 119.285 122 119.064 120.8C118.862 120.802 118.66 120.823 118.458 120.861C118.254 120.902 118.051 120.953 117.847 121.014C117.49 121.136 117.001 121.31 116.38 121.534C115.759 121.748 115.071 121.993 114.317 122.268C113.573 122.533 112.825 122.808 112.071 123.094C111.327 123.369 110.644 123.629 110.023 123.874C109.402 124.108 108.913 124.297 108.556 124.439C107.924 124.694 107.44 125 107.104 125.357C106.768 125.704 106.6 126.269 106.6 127.054V138.584C106.6 139.961 106.799 141.158 107.196 142.178C107.303 142.442 107.426 142.701 107.565 142.956Z" fill="#88B8F5"/>
<path d="M119.3 151.6C119.422 151.6 119.575 151.574 119.758 151.523C119.942 151.472 120.13 151.395 120.324 151.293C122.504 150.065 124.338 148.976 125.826 148.024C127.323 147.083 128.526 146.167 129.432 145.277C130.339 144.387 130.991 143.425 131.389 142.392C131.796 141.349 132 140.126 132 138.724V126.984C132 126.176 131.832 125.598 131.496 125.25C131.159 124.902 130.665 124.59 130.013 124.314C129.657 124.16 129.163 123.966 128.531 123.731C127.899 123.485 127.201 123.224 126.437 122.948C125.683 122.662 124.924 122.38 124.16 122.104C123.396 121.828 122.698 121.577 122.066 121.352C121.435 121.127 120.94 120.953 120.584 120.83C120.38 120.769 120.166 120.718 119.942 120.677C119.728 120.626 119.514 120.6 119.3 120.6C119.086 120.6 118.872 120.626 118.658 120.677C118.444 120.728 118.235 120.779 118.032 120.83C117.665 120.933 117.166 121.096 116.534 121.321C115.902 121.536 115.204 121.787 114.44 122.073C113.686 122.35 112.927 122.631 112.163 122.917C111.399 123.204 110.701 123.47 110.069 123.715C109.438 123.961 108.943 124.16 108.587 124.314C107.945 124.58 107.451 124.892 107.104 125.25C106.768 125.598 106.6 126.176 106.6 126.984V138.724C106.6 140.126 106.804 141.343 107.211 142.377C107.619 143.41 108.276 144.372 109.183 145.262C110.09 146.152 111.287 147.073 112.774 148.024C114.272 148.976 116.106 150.065 118.276 151.293C118.47 151.395 118.658 151.472 118.842 151.523C119.025 151.574 119.178 151.6 119.3 151.6ZM119.3 148.822C119.178 148.822 119.045 148.792 118.903 148.73C118.76 148.679 118.577 148.587 118.352 148.454C116.59 147.38 115.107 146.459 113.905 145.692C112.713 144.914 111.76 144.177 111.047 143.482C110.334 142.776 109.82 142.008 109.504 141.18C109.188 140.351 109.03 139.343 109.03 138.156V127.46C109.03 127.204 109.061 127.015 109.122 126.892C109.193 126.759 109.336 126.652 109.55 126.57C110.008 126.386 110.543 126.181 111.154 125.956C111.766 125.731 112.413 125.496 113.095 125.25C113.778 125.004 114.46 124.764 115.143 124.529C115.826 124.283 116.473 124.048 117.084 123.823C117.695 123.598 118.23 123.393 118.689 123.209C118.811 123.158 118.923 123.122 119.025 123.101C119.127 123.081 119.218 123.071 119.3 123.071C119.382 123.071 119.473 123.081 119.575 123.101C119.677 123.122 119.789 123.158 119.911 123.209C120.37 123.393 120.905 123.603 121.516 123.838C122.127 124.063 122.769 124.304 123.442 124.559C124.124 124.805 124.802 125.051 125.474 125.296C126.157 125.542 126.804 125.777 127.415 126.002C128.037 126.217 128.587 126.406 129.066 126.57C129.269 126.641 129.402 126.744 129.463 126.877C129.534 127.01 129.57 127.204 129.57 127.46V138.156C129.57 139.343 129.412 140.351 129.096 141.18C128.791 142.008 128.276 142.771 127.553 143.466C126.84 144.162 125.882 144.899 124.68 145.676C123.487 146.454 122.01 147.38 120.248 148.454C120.023 148.587 119.84 148.679 119.697 148.73C119.555 148.792 119.422 148.822 119.3 148.822Z" fill="#88B8F5"/>
<line x1="211.5" y1="134.5" x2="857.5" y2="134.5" stroke="#9BC7F8" stroke-width="3" stroke-linecap="round"/>
<g filter="url(#filter1_d_456_6893)">
<path d="M89 195C89 183.954 97.9543 175 109 175H394C405.046 175 414 183.954 414 195V417C414 428.046 405.046 437 394 437H109C97.9543 437 89 428.046 89 417V195Z" fill="white"/>
</g>
<path d="M128.648 216.617C133.18 216.617 136.898 212.891 136.898 208.359C136.898 203.836 133.172 200.109 128.648 200.109C124.117 200.109 120.398 203.836 120.398 208.359C120.398 212.891 124.125 216.617 128.648 216.617ZM127.789 212.281C127.438 212.281 127.164 212.125 126.914 211.82L125.078 209.633C124.898 209.414 124.828 209.219 124.828 208.992C124.828 208.508 125.219 208.125 125.695 208.125C125.977 208.125 126.195 208.234 126.406 208.484L127.766 210.164L130.812 205.32C131.016 204.992 131.273 204.828 131.578 204.828C132.047 204.828 132.477 205.172 132.477 205.656C132.477 205.852 132.398 206.062 132.258 206.266L128.633 211.812C128.43 212.109 128.125 212.281 127.789 212.281ZM147.914 214H152.977C155.383 214 156.875 212.758 156.875 210.781V210.766C156.875 209.32 155.789 208.203 154.297 208.086V207.945C155.453 207.773 156.336 206.734 156.336 205.547V205.531C156.336 203.797 155.031 202.727 152.844 202.727H147.914V214ZM152.242 204.477C153.367 204.477 154.016 205.023 154.016 205.938V205.953C154.016 206.883 153.32 207.414 152.047 207.414H150.273V204.477H152.242ZM152.32 208.969C153.711 208.969 154.469 209.531 154.469 210.578V210.594C154.469 211.664 153.734 212.242 152.375 212.242H150.273V208.969H152.32ZM159.008 214H166.383V212.055H161.367V202.727H159.008V214ZM173.141 214.289C176.469 214.289 178.562 212.008 178.562 208.367V208.352C178.562 204.711 176.461 202.438 173.141 202.438C169.82 202.438 167.711 204.703 167.711 208.352V208.367C167.711 212.008 169.789 214.289 173.141 214.289ZM173.141 212.289C171.281 212.289 170.117 210.75 170.117 208.367V208.352C170.117 205.961 171.305 204.438 173.141 204.438C174.969 204.438 176.156 205.961 176.156 208.352V208.367C176.156 210.75 174.977 212.289 173.141 212.289ZM185.594 214.289C188.312 214.289 190.242 212.68 190.484 210.32L190.492 210.234H188.195L188.18 210.297C187.93 211.5 186.953 212.289 185.602 212.289C183.82 212.289 182.719 210.789 182.719 208.367V208.352C182.719 205.93 183.82 204.438 185.594 204.438C186.938 204.438 187.945 205.297 188.188 206.562V206.617H190.484V206.523C190.266 204.141 188.266 202.438 185.594 202.438C182.32 202.438 180.305 204.695 180.305 208.352V208.367C180.305 212.023 182.328 214.289 185.594 214.289ZM192.664 214H195.023V210.555L196.141 209.211L199.414 214H202.242L197.844 207.664L201.953 202.727H199.328L195.164 207.789H195.023V202.727H192.664V214ZM204.023 214H211.492V212.055H206.383V209.203H211.203V207.391H206.383V204.672H211.492V202.727H204.023V214ZM213.977 214H218.414C221.789 214 223.703 211.938 223.703 208.297V208.281C223.703 204.75 221.766 202.727 218.414 202.727H213.977V214ZM216.336 212.055V204.672H218.039C220.086 204.672 221.297 206 221.297 208.32V208.336C221.297 210.742 220.125 212.055 218.039 212.055H216.336Z" fill="#737980"/>
<rect opacity="0.3" x="245.2" y="234" width="41" height="28" rx="14" fill="#CDDAEA"/>
<path d="M253.61 253H254.987L255.755 250.715H258.989L259.751 253H261.134L258.081 244.545H256.663L253.61 253ZM257.319 246.027H257.419L258.638 249.66H256.106L257.319 246.027ZM262.604 253H265.657C268.177 253 269.636 251.441 269.636 248.758V248.746C269.636 246.092 268.165 244.545 265.657 244.545H262.604V253ZM263.917 251.869V245.676H265.511C267.263 245.676 268.3 246.818 268.3 248.764V248.775C268.3 250.738 267.28 251.869 265.511 251.869H263.917ZM274.276 253.205C276.245 253.205 277.505 252.197 277.505 250.58V250.574C277.505 249.32 276.778 248.605 275.003 248.225L274.083 248.02C272.987 247.785 272.542 247.375 272.542 246.748V246.742C272.542 245.945 273.274 245.482 274.264 245.482C275.29 245.477 275.952 245.98 276.063 246.672L276.075 246.748H277.346L277.341 246.666C277.247 245.354 276.075 244.34 274.282 244.34C272.489 244.34 271.223 245.348 271.218 246.807V246.812C271.218 248.061 271.956 248.857 273.673 249.221L274.598 249.42C275.718 249.66 276.175 250.082 276.175 250.732V250.738C276.175 251.523 275.407 252.062 274.329 252.062C273.198 252.062 272.384 251.57 272.313 250.803L272.307 250.738H271.018L271.024 250.814C271.141 252.238 272.366 253.205 274.276 253.205Z" fill="#434E6B" fill-opacity="0.75"/>
<rect opacity="0.3" x="245.2" y="266" width="117" height="28" rx="14" fill="#CDDAEA"/>
<path d="M275.405 285H276.718V277.676H279.372V276.545H272.745V277.676H275.405V285ZM280.983 285H282.296V281.748H284.147L285.87 285H287.388L285.489 281.543C286.52 281.197 287.13 280.271 287.13 279.135V279.123C287.13 277.553 286.052 276.545 284.317 276.545H280.983V285ZM282.296 280.682V277.646H284.147C285.161 277.646 285.782 278.221 285.782 279.158V279.17C285.782 280.131 285.196 280.682 284.188 280.682H282.296ZM288.348 285H289.725L290.493 282.715H293.727L294.489 285H295.872L292.819 276.545H291.401L288.348 285ZM292.057 278.027H292.157L293.376 281.66H290.845L292.057 278.027ZM300.413 285.205C302.3 285.205 303.677 284.127 303.923 282.504V282.469H302.622L302.61 282.492C302.37 283.447 301.532 284.045 300.413 284.045C298.889 284.045 297.94 282.785 297.94 280.781V280.77C297.94 278.76 298.889 277.5 300.407 277.5C301.52 277.5 302.37 278.174 302.616 279.211V279.229H303.917L303.923 279.199C303.7 277.518 302.27 276.34 300.407 276.34C298.057 276.34 296.598 278.039 296.598 280.77V280.781C296.598 283.506 298.063 285.205 300.413 285.205ZM305.651 285H306.964V282.182L307.913 281.104L310.749 285H312.389L308.839 280.213L312.108 276.545H310.555L307.057 280.541H306.964V276.545H305.651V285ZM313.772 285H319.139V283.869H315.085V281.238H318.923V280.148H315.085V277.676H319.139V276.545H313.772V285ZM321.038 285H322.35V281.748H324.202L325.925 285H327.442L325.544 281.543C326.575 281.197 327.184 280.271 327.184 279.135V279.123C327.184 277.553 326.106 276.545 324.372 276.545H321.038V285ZM322.35 280.682V277.646H324.202C325.216 277.646 325.837 278.221 325.837 279.158V279.17C325.837 280.131 325.251 280.682 324.243 280.682H322.35ZM331.913 285.205C333.882 285.205 335.141 284.197 335.141 282.58V282.574C335.141 281.32 334.415 280.605 332.639 280.225L331.72 280.02C330.624 279.785 330.179 279.375 330.179 278.748V278.742C330.179 277.945 330.911 277.482 331.901 277.482C332.927 277.477 333.589 277.98 333.7 278.672L333.712 278.748H334.983L334.977 278.666C334.884 277.354 333.712 276.34 331.919 276.34C330.126 276.34 328.86 277.348 328.854 278.807V278.812C328.854 280.061 329.593 280.857 331.309 281.221L332.235 281.42C333.354 281.66 333.811 282.082 333.811 282.732V282.738C333.811 283.523 333.044 284.062 331.966 284.062C330.835 284.062 330.02 283.57 329.95 282.803L329.944 282.738H328.655L328.661 282.814C328.778 284.238 330.003 285.205 331.913 285.205Z" fill="#434E6B" fill-opacity="0.75"/>
<rect opacity="0.3" x="290.2" y="234" width="72" height="28" rx="14" fill="#CDDAEA"/>
<path d="M299.261 253H300.573V250.111H302.554C304.212 250.111 305.36 248.98 305.36 247.328V247.316C305.36 245.658 304.212 244.545 302.554 244.545H299.261V253ZM302.225 245.652C303.362 245.652 304.024 246.268 304.024 247.322V247.334C304.024 248.395 303.362 249.01 302.225 249.01H300.573V245.652H302.225ZM310.657 253.205C313.1 253.205 314.6 251.482 314.6 248.775V248.764C314.6 246.051 313.089 244.34 310.657 244.34C308.231 244.34 306.708 246.045 306.708 248.764V248.775C306.708 251.488 308.196 253.205 310.657 253.205ZM310.657 252.045C309.028 252.045 308.05 250.756 308.05 248.775V248.764C308.05 246.766 309.057 245.5 310.657 245.5C312.257 245.5 313.259 246.766 313.259 248.764V248.775C313.259 250.756 312.263 252.045 310.657 252.045ZM316.382 253H317.694V250.111H319.675C321.333 250.111 322.481 248.98 322.481 247.328V247.316C322.481 245.658 321.333 244.545 319.675 244.545H316.382V253ZM319.346 245.652C320.483 245.652 321.145 246.268 321.145 247.322V247.334C321.145 248.395 320.483 249.01 319.346 249.01H317.694V245.652H319.346ZM324.011 250.176H327.93V249.01H324.011V250.176ZM333.309 253.205C335.436 253.205 336.731 251.945 336.731 250.088V244.545H335.419V249.988C335.419 251.213 334.657 252.045 333.309 252.045C331.962 252.045 331.194 251.213 331.194 249.988V244.545H329.882V250.088C329.882 251.945 331.188 253.205 333.309 253.205ZM338.846 253H340.159V250.111H342.139C343.798 250.111 344.946 248.98 344.946 247.328V247.316C344.946 245.658 343.798 244.545 342.139 244.545H338.846V253ZM341.811 245.652C342.948 245.652 343.61 246.268 343.61 247.322V247.334C343.61 248.395 342.948 249.01 341.811 249.01H340.159V245.652H341.811ZM349.499 253.205C351.468 253.205 352.727 252.197 352.727 250.58V250.574C352.727 249.32 352.001 248.605 350.225 248.225L349.305 248.02C348.21 247.785 347.764 247.375 347.764 246.748V246.742C347.764 245.945 348.497 245.482 349.487 245.482C350.513 245.477 351.175 245.98 351.286 246.672L351.298 246.748H352.569L352.563 246.666C352.47 245.354 351.298 244.34 349.505 244.34C347.712 244.34 346.446 245.348 346.44 246.807V246.812C346.44 248.061 347.179 248.857 348.895 249.221L349.821 249.42C350.94 249.66 351.397 250.082 351.397 250.732V250.738C351.397 251.523 350.63 252.062 349.552 252.062C348.421 252.062 347.606 251.57 347.536 250.803L347.53 250.738H346.241L346.247 250.814C346.364 252.238 347.589 253.205 349.499 253.205Z" fill="#434E6B" fill-opacity="0.75"/>
<g clip-path="url(#clip3_456_6893)">
<path d="M160.741 265.086C160.741 263.664 160.615 262.314 160.399 261H140.059V269.118H151.705C151.183 271.782 149.653 274.032 147.385 275.562V280.962H154.333C158.401 277.2 160.741 271.656 160.741 265.086Z" fill="#CEDAEA"/>
<path d="M140.059 286.2C145.891 286.2 150.769 284.256 154.333 280.962L147.385 275.562C145.441 276.858 142.975 277.65 140.059 277.65C134.425 277.65 129.655 273.852 127.945 268.722H120.781V274.284C124.327 281.34 131.617 286.2 140.059 286.2Z" fill="#CEDAEA"/>
<path d="M127.945 268.722C127.495 267.426 127.261 266.04 127.261 264.6C127.261 263.16 127.513 261.774 127.945 260.478V254.916H120.781C119.305 257.832 118.459 261.108 118.459 264.6C118.459 268.092 119.305 271.368 120.781 274.284L127.945 268.722Z" fill="#CEDAEA"/>
<path d="M140.059 251.55C143.245 251.55 146.089 252.648 148.339 254.79L154.495 248.634C150.769 245.142 145.891 243 140.059 243C131.617 243 124.327 247.86 120.781 254.916L127.945 260.478C129.655 255.348 134.425 251.55 140.059 251.55Z" fill="#CEDAEA"/>
</g>
<rect x="176" y="243" width="43.2" height="43.2" rx="2.85" fill="#CEDAEA"/>
<path fill-rule="evenodd" clip-rule="evenodd" d="M212.868 264.836C208.729 267.887 202.729 269.515 197.563 269.515C190.321 269.515 183.8 266.836 178.867 262.38C178.48 262.03 178.827 261.552 179.292 261.825C184.616 264.923 191.198 266.786 197.998 266.786C202.583 266.786 207.628 265.837 212.266 263.869C212.967 263.571 213.553 264.327 212.868 264.836Z" fill="white"/>
<path fill-rule="evenodd" clip-rule="evenodd" d="M214.589 262.867C214.062 262.191 211.091 262.548 209.758 262.706C209.352 262.755 209.29 262.402 209.656 262.148C212.021 260.483 215.903 260.963 216.356 261.521C216.809 262.083 216.238 265.974 214.015 267.831C213.674 268.116 213.348 267.964 213.5 267.586C214 266.34 215.119 263.546 214.589 262.867Z" fill="white"/>
</g>
</g>
<defs>
<filter id="filter0_i_456_6893" x="0" y="0" width="375" height="311" filterUnits="userSpaceOnUse" color-interpolation-filters="sRGB">
<feFlood flood-opacity="0" result="BackgroundImageFix"/>
<feBlend mode="normal" in="SourceGraphic" in2="BackgroundImageFix" result="shape"/>
<feColorMatrix in="SourceAlpha" type="matrix" values="0 0 0 0 0 0 0 0 0 0 0 0 0 0 0 0 0 0 127 0" result="hardAlpha"/>
<feOffset/>
<feGaussianBlur stdDeviation="2"/>
<feComposite in2="hardAlpha" operator="arithmetic" k2="-1" k3="1"/>
<feColorMatrix type="matrix" values="0 0 0 0 0.334219 0 0 0 0 0.492703 0 0 0 0 0.8625 0 0 0 0.15 0"/>
<feBlend mode="normal" in2="shape" result="effect1_innerShadow_456_6893"/>
</filter>
<filter id="filter1_d_456_6893" x="81" y="167" width="341" height="278" filterUnits="userSpaceOnUse" color-interpolation-filters="sRGB">
<feFlood flood-opacity="0" result="BackgroundImageFix"/>
<feColorMatrix in="SourceAlpha" type="matrix" values="0 0 0 0 0 0 0 0 0 0 0 0 0 0 0 0 0 0 127 0" result="hardAlpha"/>
<feOffset/>
<feGaussianBlur stdDeviation="4"/>
<feComposite in2="hardAlpha" operator="out"/>
<feColorMatrix type="matrix" values="0 0 0 0 0.3003 0 0 0 0 0.534018 0 0 0 0 0.91 0 0 0 0.5 0"/>
<feBlend mode="normal" in2="BackgroundImageFix" result="effect1_dropShadow_456_6893"/>
<feBlend mode="normal" in="SourceGraphic" in2="effect1_dropShadow_456_6893" result="shape"/>
</filter>
<linearGradient id="paint0_linear_456_6893" x1="187.5" y1="-229" x2="187.5" y2="329" gradientUnits="userSpaceOnUse">
<stop stop-color="#4D88E8"/>
<stop offset="1" stop-color="#DAF9FF"/>
</linearGradient>
<clipPath id="clip0_456_6893">
<rect width="311" height="287" fill="white" transform="translate(64 24)"/>
</clipPath>
<clipPath id="clip1_456_6893">
<rect width="82.2479" height="16" fill="white" transform="translate(164 32)"/>
</clipPath>
<clipPath id="clip2_456_6893">
<rect width="18.495" height="18.495" fill="white" transform="translate(126.758 29.9486)"/>
</clipPath>
<clipPath id="clip3_456_6893">
<rect width="43.2" height="43.2" fill="white" transform="translate(118 243)"/>
</clipPath>
</defs>
</svg>
