<svg width="375" height="215" viewBox="0 0 375 215" fill="none" xmlns="http://www.w3.org/2000/svg">
<g clip-path="url(#clip0_24_1437)">
<rect width="376" height="215" fill="#F2F2F7"/>
<path d="M39 73C39 54.2223 54.2223 39 73 39H303C321.778 39 337 54.2223 337 73V277H39V73Z" fill="#F2F1F7" stroke="#C7C7CC" stroke-width="2"/>
<path d="M58 120C58 114.477 62.4772 110 68 110H308C313.523 110 318 114.477 318 120V150H58V120Z" fill="white"/>
<line x1="113.75" y1="129.25" x2="211.25" y2="129.25" stroke="#3C3C43" stroke-opacity="0.18" stroke-width="1.5" stroke-linecap="round"/>
<rect opacity="0.3" x="74" y="119" width="22" height="22" rx="4" fill="#78CBF2"/>
<rect x="58" y="150" width="260" height="40" fill="white"/>
<line x1="113.75" y1="169.25" x2="211.25" y2="169.25" stroke="#3C3C43" stroke-opacity="0.18" stroke-width="1.5" stroke-linecap="round"/>
<rect x="70" y="154" width="32" height="32" rx="4" fill="white"/>
<rect x="69.5" y="153.5" width="33" height="33" rx="4.5" stroke="#767680" stroke-opacity="0.12"/>
<g clip-path="url(#clip1_24_1437)">
<path d="M87.9911 161.219C87.9911 161.353 87.9822 161.487 87.9733 161.611C87.8647 163.378 87.3061 165.087 86.3508 166.577V166.622C88.0427 166.622 89.4349 168.014 89.4354 169.706V177.123H95.2533V169.965C95.2459 165.7 92.1789 162.008 87.9876 161.219" fill="#415AFF"/>
<path d="M76.7847 169.778C76.7758 169.929 76.7668 170.081 76.7668 170.232C81.9732 170.544 86.4307 166.657 86.7427 161.54C86.7516 161.389 86.7606 161.237 86.7606 161.085C81.5631 160.773 77.0967 164.66 76.7847 169.778Z" fill="#73A8FF"/>
<path d="M82.5793 171.311H76.7578V177.132H82.5793V171.311Z" fill="#415AFF"/>
</g>
<rect x="58" y="190" width="260" height="40" fill="white"/>
<line x1="113.75" y1="209.25" x2="211.25" y2="209.25" stroke="#3C3C43" stroke-opacity="0.18" stroke-width="1.5" stroke-linecap="round"/>
<rect opacity="0.3" x="74" y="199" width="22" height="22" rx="4" fill="#EE5F46"/>
<path d="M108.484 73H112.711C116.086 73 118.016 70.9297 118.016 67.3203V67.3047C118.016 63.7734 116.062 61.7266 112.711 61.7266H108.484V73ZM110.5 71.3047V63.4219H112.445C114.656 63.4219 115.961 64.8594 115.961 67.3359V67.3516C115.961 69.8828 114.688 71.3047 112.445 71.3047H110.5ZM123.781 73.1719C126.102 73.1719 127.242 71.8359 127.516 70.7344L127.539 70.6641H125.688L125.664 70.7188C125.477 71.1094 124.875 71.6406 123.82 71.6406C122.5 71.6406 121.672 70.75 121.648 69.2188H127.617V68.5781C127.617 66 126.117 64.2969 123.688 64.2969C121.258 64.2969 119.703 66.0547 119.703 68.7422V68.75C119.703 71.4688 121.242 73.1719 123.781 73.1719ZM123.711 65.8203C124.797 65.8203 125.586 66.5156 125.719 67.9141H121.664C121.812 66.5547 122.625 65.8203 123.711 65.8203ZM130.188 73H132.133V65.9688H133.953V64.4609H132.102V63.7266C132.102 62.9141 132.453 62.4766 133.367 62.4766C133.641 62.4766 133.883 62.4922 134.031 62.5156V61.1562C133.719 61.1016 133.367 61.0781 132.953 61.0781C131.055 61.0781 130.188 61.9141 130.188 63.6172V64.4609H128.789V65.9688H130.188V73ZM137.891 73.1406C139.016 73.1406 139.922 72.6562 140.391 71.8281H140.523V73H142.445V67.1641C142.445 65.3594 141.211 64.2969 139.016 64.2969C136.984 64.2969 135.609 65.25 135.422 66.6875L135.414 66.7578H137.25L137.258 66.7266C137.453 66.1641 138.031 65.8438 138.922 65.8438C139.969 65.8438 140.523 66.3125 140.523 67.1641V67.8984L138.328 68.0312C136.25 68.1562 135.086 69.0469 135.086 70.5703V70.5859C135.086 72.1406 136.266 73.1406 137.891 73.1406ZM137.008 70.4922V70.4766C137.008 69.7734 137.516 69.375 138.602 69.3047L140.523 69.1797V69.8672C140.523 70.8828 139.656 71.6484 138.484 71.6484C137.625 71.6484 137.008 71.2188 137.008 70.4922ZM147.609 73.1719C148.844 73.1719 149.711 72.6172 150.109 71.7031H150.242V73H152.188V64.4609H150.242V69.4375C150.242 70.7188 149.57 71.5312 148.312 71.5312C147.141 71.5312 146.648 70.8594 146.648 69.5391V64.4609H144.703V69.9844C144.703 72.0156 145.688 73.1719 147.609 73.1719ZM154.641 73H156.586V61.1562H154.641V73ZM162.406 73.0391C162.781 73.0391 163.141 73.0078 163.422 72.9531V71.4531C163.188 71.4766 163.039 71.4844 162.766 71.4844C161.953 71.4844 161.617 71.125 161.617 70.2734V65.9688H163.422V64.4609H161.617V62.3672H159.641V64.4609H158.312V65.9688H159.641V70.7344C159.641 72.3828 160.445 73.0391 162.406 73.0391ZM169.828 73H174.648C177.055 73 178.523 71.7812 178.523 69.8047V69.7891C178.523 68.3281 177.477 67.2344 175.961 67.0938V66.9531C177.094 66.7734 177.969 65.7266 177.969 64.5469V64.5312C177.969 62.8047 176.68 61.7266 174.539 61.7266H169.828V73ZM174.047 63.2969C175.266 63.2969 175.977 63.8828 175.977 64.8828V64.8984C175.977 65.9219 175.219 66.4766 173.789 66.4766H171.844V63.2969H174.047ZM174.109 67.9062C175.648 67.9062 176.461 68.5078 176.461 69.6484V69.6641C176.461 70.8125 175.672 71.4297 174.188 71.4297H171.844V67.9062H174.109ZM180.516 73H182.461V68.0391C182.461 66.8203 183.312 66.0469 184.609 66.0469C184.945 66.0469 185.266 66.0938 185.578 66.1562V64.4141C185.391 64.3594 185.086 64.3203 184.789 64.3203C183.664 64.3203 182.883 64.8594 182.594 65.7734H182.461V64.4609H180.516V73ZM190.641 73.1719C193.195 73.1719 194.75 71.5 194.75 68.7344V68.7188C194.75 65.9688 193.188 64.2969 190.641 64.2969C188.102 64.2969 186.531 65.9766 186.531 68.7188V68.7344C186.531 71.5 188.078 73.1719 190.641 73.1719ZM190.641 71.5938C189.289 71.5938 188.516 70.5391 188.516 68.7422V68.7266C188.516 66.9297 189.289 65.8672 190.641 65.8672C191.984 65.8672 192.758 66.9297 192.758 68.7266V68.7422C192.758 70.5391 191.992 71.5938 190.641 71.5938ZM197.984 73H200L201.656 66.8125H201.789L203.453 73H205.492L207.805 64.4609H205.875L204.461 70.875H204.328L202.672 64.4609H200.82L199.18 70.875H199.047L197.625 64.4609H195.672L197.984 73ZM212.492 73.1719C214.594 73.1719 216.117 72.0859 216.117 70.4609V70.4453C216.117 69.2031 215.328 68.4922 213.656 68.1172L212.273 67.8125C211.352 67.6016 210.992 67.2969 210.992 66.7969V66.7891C210.992 66.1484 211.617 65.7266 212.484 65.7266C213.398 65.7266 213.961 66.1641 214.102 66.7031L214.109 66.7266H215.938V66.7109C215.812 65.3281 214.57 64.2969 212.492 64.2969C210.477 64.2969 209.07 65.3594 209.07 66.8984V66.9062C209.07 68.1641 209.844 68.9297 211.469 69.2891L212.852 69.6016C213.789 69.8125 214.164 70.1406 214.164 70.6406V70.6562C214.164 71.2969 213.492 71.7344 212.523 71.7344C211.555 71.7344 210.984 71.3203 210.781 70.7266L210.773 70.7109H208.844V70.7266C209.008 72.1719 210.32 73.1719 212.492 73.1719ZM221.734 73.1719C224.055 73.1719 225.195 71.8359 225.469 70.7344L225.492 70.6641H223.641L223.617 70.7188C223.43 71.1094 222.828 71.6406 221.773 71.6406C220.453 71.6406 219.625 70.75 219.602 69.2188H225.57V68.5781C225.57 66 224.07 64.2969 221.641 64.2969C219.211 64.2969 217.656 66.0547 217.656 68.7422V68.75C217.656 71.4688 219.195 73.1719 221.734 73.1719ZM221.664 65.8203C222.75 65.8203 223.539 66.5156 223.672 67.9141H219.617C219.766 66.5547 220.578 65.8203 221.664 65.8203ZM227.516 73H229.461V68.0391C229.461 66.8203 230.312 66.0469 231.609 66.0469C231.945 66.0469 232.266 66.0938 232.578 66.1562V64.4141C232.391 64.3594 232.086 64.3203 231.789 64.3203C230.664 64.3203 229.883 64.8594 229.594 65.7734H229.461V64.4609H227.516V73ZM237.805 73H239.914L240.852 70.0859H245.023L245.969 73H248.078L244.078 61.7266H241.805L237.805 73ZM242.875 63.8203H243.008L244.523 68.5312H241.359L242.875 63.8203ZM249.812 75.8359H251.758V71.6406H251.891C252.336 72.5625 253.312 73.1406 254.484 73.1406C256.648 73.1406 257.992 71.4609 257.992 68.7422V68.7266C257.992 66.0234 256.625 64.3203 254.484 64.3203C253.289 64.3203 252.359 64.8672 251.891 65.7969H251.758V64.4609H249.812V75.8359ZM253.875 71.5C252.555 71.5 251.734 70.4453 251.734 68.7344V68.7188C251.734 67.0078 252.555 65.9609 253.875 65.9609C255.203 65.9609 256.008 67.0078 256.008 68.7266V68.7422C256.008 70.4531 255.203 71.5 253.875 71.5ZM259.953 75.8359H261.898V71.6406H262.031C262.477 72.5625 263.453 73.1406 264.625 73.1406C266.789 73.1406 268.133 71.4609 268.133 68.7422V68.7266C268.133 66.0234 266.766 64.3203 264.625 64.3203C263.43 64.3203 262.5 64.8672 262.031 65.7969H261.898V64.4609H259.953V75.8359ZM264.016 71.5C262.695 71.5 261.875 70.4453 261.875 68.7344V68.7188C261.875 67.0078 262.695 65.9609 264.016 65.9609C265.344 65.9609 266.148 67.0078 266.148 68.7266V68.7422C266.148 70.4531 265.344 71.5 264.016 71.5Z" fill="black"/>
<path d="M63.3125 67.2881C63.3125 67.5371 63.4077 67.7495 63.5981 67.9399L69.311 73.5283C69.4722 73.6895 69.6699 73.77 69.9043 73.77C70.3804 73.77 70.7612 73.4038 70.7612 72.9277C70.7612 72.6934 70.666 72.481 70.5049 72.3125L65.3486 67.2881L70.5049 62.2637C70.6587 62.1025 70.7612 61.8901 70.7612 61.6558C70.7612 61.1724 70.3804 60.8062 69.9043 60.8062C69.6699 60.8062 69.4722 60.8867 69.311 61.0479L63.5981 66.6362C63.4004 66.8267 63.3125 67.0391 63.3125 67.2881Z" fill="#4078FB"/>
<g filter="url(#filter0_d_24_1437)">
<rect x="30" y="145" width="316" height="50" rx="10" fill="white"/>
</g>
<path d="M296.513 176.355C297.011 176.355 297.399 176.165 297.663 175.762L304.489 165.325C304.68 165.032 304.76 164.761 304.76 164.504C304.76 163.816 304.248 163.318 303.544 163.318C303.061 163.318 302.761 163.494 302.468 163.955L296.477 173.403L293.437 169.631C293.166 169.309 292.873 169.163 292.463 169.163C291.752 169.163 291.24 169.668 291.24 170.356C291.24 170.664 291.335 170.935 291.599 171.235L295.378 175.813C295.693 176.187 296.044 176.355 296.513 176.355Z" fill="#4078FB"/>
<path d="M114.391 176H116.336V168.234H116.461L122 176H123.742V164.727H121.805V172.492H121.68L116.141 164.727H114.391V176ZM129.984 176.172C132.305 176.172 133.445 174.836 133.719 173.734L133.742 173.664H131.891L131.867 173.719C131.68 174.109 131.078 174.641 130.023 174.641C128.703 174.641 127.875 173.75 127.852 172.219H133.82V171.578C133.82 169 132.32 167.297 129.891 167.297C127.461 167.297 125.906 169.055 125.906 171.742V171.75C125.906 174.469 127.445 176.172 129.984 176.172ZM129.914 168.82C131 168.82 131.789 169.516 131.922 170.914H127.867C128.016 169.555 128.828 168.82 129.914 168.82ZM139.422 176.172C141.742 176.172 142.883 174.836 143.156 173.734L143.18 173.664H141.328L141.305 173.719C141.117 174.109 140.516 174.641 139.461 174.641C138.141 174.641 137.312 173.75 137.289 172.219H143.258V171.578C143.258 169 141.758 167.297 139.328 167.297C136.898 167.297 135.344 169.055 135.344 171.742V171.75C135.344 174.469 136.883 176.172 139.422 176.172ZM139.352 168.82C140.438 168.82 141.227 169.516 141.359 170.914H137.305C137.453 169.555 138.266 168.82 139.352 168.82ZM147.297 176H149.43L152.453 167.461H150.406L148.445 174.102H148.312L146.336 167.461H144.258L147.297 176ZM156.125 176.141C157.25 176.141 158.156 175.656 158.625 174.828H158.758V176H160.68V170.164C160.68 168.359 159.445 167.297 157.25 167.297C155.219 167.297 153.844 168.25 153.656 169.688L153.648 169.758H155.484L155.492 169.727C155.688 169.164 156.266 168.844 157.156 168.844C158.203 168.844 158.758 169.312 158.758 170.164V170.898L156.562 171.031C154.484 171.156 153.32 172.047 153.32 173.57V173.586C153.32 175.141 154.5 176.141 156.125 176.141ZM155.242 173.492V173.477C155.242 172.773 155.75 172.375 156.836 172.305L158.758 172.18V172.867C158.758 173.883 157.891 174.648 156.719 174.648C155.859 174.648 155.242 174.219 155.242 173.492Z" fill="black"/>
<rect x="69" y="154" width="32" height="32" rx="4" fill="white"/>
<rect x="68.5" y="153.5" width="33" height="33" rx="4.5" stroke="#767680" stroke-opacity="0.12"/>
<g clip-path="url(#clip2_24_1437)">
<path d="M86.9911 161.219C86.9911 161.353 86.9822 161.487 86.9733 161.611C86.8647 163.378 86.3061 165.087 85.3508 166.577V166.622C87.0427 166.622 88.4349 168.014 88.4354 169.706V177.123H94.2533V169.965C94.2459 165.7 91.1789 162.008 86.9876 161.219" fill="#415AFF"/>
<path d="M75.7847 169.778C75.7758 169.929 75.7668 170.081 75.7668 170.232C80.9732 170.544 85.4307 166.657 85.7427 161.54C85.7516 161.389 85.7606 161.237 85.7606 161.085C80.5631 160.773 76.0967 164.66 75.7847 169.778Z" fill="#73A8FF"/>
<path d="M81.5793 171.311H75.7578V177.132H81.5793V171.311Z" fill="#415AFF"/>
</g>
</g>
<defs>
<filter id="filter0_d_24_1437" x="0" y="115" width="376" height="110" filterUnits="userSpaceOnUse" color-interpolation-filters="sRGB">
<feFlood flood-opacity="0" result="BackgroundImageFix"/>
<feColorMatrix in="SourceAlpha" type="matrix" values="0 0 0 0 0 0 0 0 0 0 0 0 0 0 0 0 0 0 127 0" result="hardAlpha"/>
<feOffset/>
<feGaussianBlur stdDeviation="15"/>
<feComposite in2="hardAlpha" operator="out"/>
<feColorMatrix type="matrix" values="0 0 0 0 0 0 0 0 0 0 0 0 0 0 0 0 0 0 0.15 0"/>
<feBlend mode="normal" in2="BackgroundImageFix" result="effect1_dropShadow_24_1437"/>
<feBlend mode="normal" in="SourceGraphic" in2="effect1_dropShadow_24_1437" result="shape"/>
</filter>
<clipPath id="clip0_24_1437">
<rect width="376" height="215" fill="white"/>
</clipPath>
<clipPath id="clip1_24_1437">
<rect width="18.495" height="18.495" fill="white" transform="translate(76.7578 159.949)"/>
</clipPath>
<clipPath id="clip2_24_1437">
<rect width="18.495" height="18.495" fill="white" transform="translate(75.7578 159.949)"/>
</clipPath>
</defs>
</svg>
