<svg width="32" height="32" viewBox="0 0 32 32" fill="none" xmlns="http://www.w3.org/2000/svg">
<path d="M4.52653 23.5612C11.71 20.1813 16.6982 12.7476 16.6982 4.12073C16.6982 2.78979 16.5795 1.48726 16.3523 0.223633C16.1448 0.225928 15.9372 0.247335 15.7297 0.287855C15.5201 0.330807 15.3106 0.384498 15.101 0.448927C14.7343 0.577784 14.2314 0.760332 13.5923 0.996571C12.9532 1.22207 12.246 1.47979 11.4707 1.76972C10.7058 2.04891 9.93575 2.33884 9.16044 2.6395C8.3956 2.92943 7.69363 3.20325 7.05452 3.46097C6.41541 3.70795 5.91251 3.9066 5.5458 4.05693C4.89622 4.32539 4.39855 4.64753 4.0528 5.02337C3.70705 5.38846 3.53418 5.98443 3.53418 6.81126V18.9561C3.53418 20.4057 3.73849 21.6674 4.1471 22.7413C4.25673 23.0194 4.38321 23.2927 4.52653 23.5612Z" fill="#4078FB"/>
<path d="M16.26 32C16.3832 32 16.5373 31.9736 16.7221 31.9208C16.907 31.868 17.0969 31.7888 17.292 31.6832C19.4895 30.4158 21.3379 29.2911 22.8372 28.3089C24.3467 27.3373 25.5584 26.3921 26.4723 25.4733C27.3862 24.5545 28.0434 23.5617 28.4439 22.495C28.8546 21.4178 29.06 20.1558 29.06 18.7089V6.5901C29.06 5.75578 28.8906 5.15908 28.5517 4.8C28.2128 4.44092 27.7148 4.11881 27.0576 3.83366C26.6982 3.67525 26.2002 3.47459 25.5635 3.23168C24.9268 2.97822 24.2234 2.70891 23.4533 2.42376C22.6934 2.12805 21.9284 1.83762 21.1582 1.55248C20.3881 1.26733 19.6847 1.00858 19.048 0.776238C18.4113 0.543894 17.9133 0.364356 17.5539 0.237624C17.3485 0.174257 17.1329 0.121452 16.907 0.0792079C16.6913 0.0264026 16.4757 0 16.26 0C16.0444 0 15.8287 0.0264026 15.6131 0.0792079C15.3974 0.132013 15.1869 0.184818 14.9816 0.237624C14.6119 0.343234 14.1087 0.512211 13.4721 0.744554C12.8354 0.966337 12.132 1.22508 11.3618 1.52079C10.6019 1.80594 9.83692 2.09637 9.06676 2.39208C8.2966 2.68779 7.59319 2.96238 6.95653 3.21584C6.31987 3.46931 5.82184 3.67525 5.46243 3.83366C4.8155 4.10825 4.31746 4.43036 3.96833 4.8C3.62946 5.15908 3.46002 5.75578 3.46002 6.5901V18.7089C3.46002 20.1558 3.6654 21.4125 4.07615 22.4792C4.4869 23.5459 5.14923 24.5386 6.06315 25.4574C6.97707 26.3762 8.18365 27.3267 9.68289 28.3089C11.1924 29.2911 13.0408 30.4158 15.228 31.6832C15.4231 31.7888 15.6131 31.868 15.7979 31.9208C15.9828 31.9736 16.1368 32 16.26 32ZM16.26 29.1327C16.1368 29.1327 16.0033 29.101 15.8595 29.0376C15.7158 28.9848 15.5309 28.8898 15.305 28.7525C13.5285 27.6436 12.0344 26.6931 10.8227 25.901C9.62127 25.0983 8.66115 24.338 7.94233 23.6198C7.22352 22.8911 6.70495 22.099 6.38662 21.2436C6.06828 20.3881 5.90912 19.3479 5.90912 18.1228V7.08119C5.90912 6.81716 5.93993 6.62178 6.00154 6.49505C6.07342 6.35776 6.21718 6.24686 6.43283 6.16238C6.89492 5.97228 7.43403 5.76106 8.05015 5.52871C8.66628 5.29637 9.31835 5.05347 10.0064 4.8C10.6944 4.54653 11.3824 4.29835 12.0704 4.05545C12.7584 3.80198 13.4104 3.55908 14.0266 3.32673C14.6427 3.09439 15.1818 2.88317 15.6439 2.69307C15.7671 2.64026 15.8801 2.6033 15.9828 2.58218C16.0855 2.56106 16.1779 2.55049 16.26 2.55049C16.3422 2.55049 16.4346 2.56106 16.5373 2.58218C16.64 2.6033 16.7529 2.64026 16.8761 2.69307C17.3382 2.88317 17.8773 3.09967 18.4935 3.34257C19.1096 3.57492 19.7565 3.8231 20.4343 4.08713C21.1223 4.34059 21.8051 4.59406 22.4829 4.84752C23.1709 5.10099 23.823 5.34389 24.4391 5.57624C25.0655 5.79802 25.62 5.9934 26.1026 6.16238C26.308 6.2363 26.4415 6.34191 26.5031 6.47921C26.575 6.6165 26.6109 6.81716 26.6109 7.08119V18.1228C26.6109 19.3479 26.4518 20.3881 26.1334 21.2436C25.8254 22.099 25.3068 22.8858 24.5777 23.604C23.8589 24.3221 22.8936 25.0825 21.6819 25.8851C20.4805 26.6878 18.9915 27.6436 17.215 28.7525C16.9891 28.8898 16.8043 28.9848 16.6605 29.0376C16.5167 29.101 16.3832 29.1327 16.26 29.1327Z" fill="#4078FB"/>
</svg>
