<svg width="120" height="36" viewBox="0 0 120 36" fill="none" xmlns="http://www.w3.org/2000/svg">
<g clip-path="url(#clip0_589_6963)">
<path d="M19.9392 8.00098C19.9392 8.14918 19.9293 8.29739 19.9195 8.43571C19.7991 10.3934 19.18 12.2881 18.1212 13.9391V13.9885C19.9964 13.989 21.5393 15.5319 21.5398 17.4071V25.6275H27.9877V17.6936C27.9795 12.9668 24.5804 8.87539 19.9353 8.00098" fill="white"/>
<path d="M7.51933 17.486C7.50945 17.654 7.49957 17.822 7.49957 17.9899C13.2697 18.3357 18.2099 14.0279 18.5557 8.35659C18.5655 8.18863 18.5754 8.02066 18.5754 7.8527C12.8152 7.50689 7.86515 11.8147 7.51933 17.486Z" fill="white"/>
<path d="M13.9414 19.1855H7.48956V25.6374H13.9414V19.1855Z" fill="white"/>
</g>
<g clip-path="url(#clip1_589_6963)">
<path fill-rule="evenodd" clip-rule="evenodd" d="M62.8436 10.5551C66.0027 10.5551 69.6687 12.8947 69.6687 17.8437L69.6389 18.5936H58.8498C59.0287 20.9033 60.6978 22.313 62.7243 22.313C64.4828 22.313 65.6451 21.2932 66.271 20.0334L69.4785 20.0414C69.4785 20.1057 69.3794 20.7762 69.0213 21.4239C67.7934 23.7383 65.4513 25.0725 62.8734 25.0725C58.373 25.0725 55.3926 21.773 55.3926 17.8139C55.3926 13.8846 58.4028 10.5551 62.8436 10.5551ZM78.5202 10.5551C81.6795 10.5551 85.3454 12.8947 85.3454 17.8437L85.3156 18.5936H74.5264C74.7053 20.9033 76.3744 22.313 78.4009 22.313C80.1594 22.313 81.3217 21.2932 81.9476 20.0334L85.1551 20.0414C85.1551 20.1057 85.0559 20.7762 84.698 21.4239C83.47 23.7383 81.1279 25.0725 78.55 25.0725C74.0496 25.0725 71.0692 21.773 71.0692 17.8139C71.0692 13.8846 74.0794 10.5551 78.5202 10.5551ZM106.801 10.5248C108.44 10.5463 110.337 11.2342 111.51 12.7793L111.516 11.0028L114.479 11.0112V19.2697H114.483C114.483 19.2697 114.477 20.3759 114.473 21.6366C114.474 21.6366 114.475 21.6367 114.476 21.6367V24.929L113.653 24.9249C112.362 24.9249 111.416 24.2367 111.125 23.1402C109.908 24.4131 108.131 25.0606 106.613 25.0409C102.62 24.9887 99.7709 21.7119 99.8227 17.693C99.8742 13.7041 102.807 10.4726 106.801 10.5248ZM47.9473 10.5967C51.5536 10.5967 53.9379 13.2063 53.9379 16.8956V24.6642H50.5403V17.2556C50.5403 14.946 49.3183 13.4763 47.1426 13.4763C45.28 13.4763 43.2572 15.0329 43.2572 16.979C43.2641 17.1623 43.2107 24.3672 43.2085 24.6553L43.2085 24.6642H39.8108L39.8034 11.0356L40.6262 11.0396C41.8473 11.0396 42.7594 11.7065 43.1062 12.6968C44.3884 11.4221 46.0325 10.5967 47.9473 10.5967ZM88.5504 11.0051L92.6326 20.0634L96.7447 11.0051H100.47L93.944 24.6226H91.351L84.8248 11.0051H88.5504ZM107.27 13.4106C104.856 13.3791 103.281 15.3384 103.25 17.7378C103.219 20.167 104.743 22.1368 107.157 22.1683C109.511 22.1992 111.086 20.2998 111.118 17.8405C111.149 15.4111 109.624 13.4414 107.27 13.4106ZM62.7541 13.1347C60.7573 13.1347 59.2969 14.5444 59.0584 16.3441H66.2412C66.0326 14.4544 64.6616 13.1347 62.7541 13.1347ZM78.4309 13.1347C76.434 13.1347 74.9735 14.5444 74.7351 16.3441H81.9178C81.7093 14.4544 80.3383 13.1347 78.4309 13.1347Z" fill="white"/>
</g>
<defs>
<clipPath id="clip0_589_6963">
<rect width="20.4977" height="20.4977" fill="white" transform="translate(7.48956 6.59277)"/>
</clipPath>
<clipPath id="clip1_589_6963">
<rect width="74.7855" height="14.5483" fill="white" transform="translate(39.8034 10.5242)"/>
</clipPath>
</defs>
</svg>
