<svg width="593" height="593" viewBox="0 0 593 593" fill="none" xmlns="http://www.w3.org/2000/svg">
<g clip-path="url(#clip0_2711_939)">
<path d="M359.713 41.0144C359.713 45.2936 359.428 49.5728 359.142 53.5667C355.668 110.092 337.792 164.797 307.222 212.467V213.894C361.365 213.908 405.914 258.457 405.928 312.6V549.953H592.102V320.873C591.865 184.396 493.72 66.2616 359.599 41.0144" fill="#415AFF"/>
<path d="M1.10889 314.883C0.82361 319.732 0.53833 324.582 0.53833 329.432C167.141 339.417 309.781 215.035 319.766 51.2845C320.051 46.4348 320.336 41.585 320.336 36.7353C154.019 26.7505 11.0937 151.132 1.10889 314.883Z" fill="#73A8FF"/>
<path d="M186.537 363.955H0.249268V550.242H186.537V363.955Z" fill="#415AFF"/>
</g>
<defs>
<clipPath id="clip0_2711_939">
<rect width="591.841" height="591.841" fill="white" transform="translate(0.249268 0.356445)"/>
</clipPath>
</defs>
</svg>
