<svg width="375" height="215" viewBox="0 0 375 215" fill="none" xmlns="http://www.w3.org/2000/svg">
<g clip-path="url(#clip0_24_1185)">
<rect width="376" height="215" fill="#F2F2F7"/>
<path d="M39 73C39 54.2223 54.2223 39 73 39H303C321.778 39 337 54.2223 337 73V277H39V73Z" fill="#F2F1F7" stroke="#C7C7CC" stroke-width="2"/>
<rect x="58" y="95" width="260" height="40" rx="10" fill="white"/>
<line x1="113.75" y1="114.25" x2="211.25" y2="114.25" stroke="#3C3C43" stroke-opacity="0.18" stroke-width="1.5" stroke-linecap="round"/>
<rect x="260" y="104" width="44" height="22" rx="11" fill="#A8E2AF"/>
<rect x="284" y="106" width="18" height="18" rx="9" fill="white"/>
<rect x="74" y="104" width="23" height="22" rx="8" fill="#3C3C43" fill-opacity="0.18"/>
<rect x="58" y="155" width="260" height="40" rx="10" fill="white"/>
<line x1="255.75" y1="174.25" x2="281.25" y2="174.25" stroke="#3C3C43" stroke-opacity="0.18" stroke-width="1.5" stroke-linecap="round"/>
<path d="M302.688 174.712C302.688 174.463 302.592 174.25 302.402 174.06L296.689 168.472C296.528 168.311 296.33 168.23 296.096 168.23C295.62 168.23 295.239 168.596 295.239 169.072C295.239 169.307 295.334 169.519 295.495 169.688L300.651 174.712L295.495 179.736C295.341 179.897 295.239 180.11 295.239 180.344C295.239 180.828 295.62 181.194 296.096 181.194C296.33 181.194 296.528 181.113 296.689 180.952L302.402 175.364C302.6 175.173 302.688 174.961 302.688 174.712Z" fill="#3C3C43" fill-opacity="0.6"/>
<path d="M75.4375 181H79.3047C82.6562 181 84.625 178.914 84.625 175.367V175.352C84.625 171.812 82.6484 169.727 79.3047 169.727H75.4375V181ZM76.8438 179.734V170.992H79.2109C81.7109 170.992 83.1875 172.617 83.1875 175.367V175.383C83.1875 178.125 81.7266 179.734 79.2109 179.734H76.8438ZM90.3281 181.148C92.3125 181.148 93.5156 180.023 93.8047 178.883L93.8203 178.82H92.4609L92.4297 178.891C92.2031 179.398 91.5 179.938 90.3594 179.938C88.8594 179.938 87.8984 178.922 87.8594 177.18H93.9219V176.648C93.9219 174.133 92.5312 172.43 90.2422 172.43C87.9531 172.43 86.4688 174.211 86.4688 176.812V176.82C86.4688 179.461 87.9219 181.148 90.3281 181.148ZM90.2344 173.641C91.4766 173.641 92.3984 174.43 92.5391 176.094H87.8828C88.0312 174.492 88.9844 173.641 90.2344 173.641ZM96.5938 181H97.9531V173.703H99.8672V172.578H97.9531V171.68C97.9531 170.758 98.3438 170.281 99.3125 170.281C99.5547 170.281 99.7812 170.289 99.9453 170.32V169.234C99.6641 169.18 99.3672 169.156 99.0391 169.156C97.4375 169.156 96.5938 169.961 96.5938 171.641V172.578H95.1953V173.703H96.5938V181ZM103.906 181.148C105.039 181.148 105.922 180.656 106.453 179.758H106.578V181H107.938V175.234C107.938 173.484 106.789 172.43 104.734 172.43C102.938 172.43 101.656 173.32 101.438 174.641L101.43 174.688H102.789L102.797 174.664C103.016 174.008 103.68 173.633 104.688 173.633C105.945 173.633 106.578 174.195 106.578 175.234V176L104.164 176.148C102.203 176.266 101.094 177.133 101.094 178.633V178.648C101.094 180.18 102.305 181.148 103.906 181.148ZM102.484 178.617V178.602C102.484 177.766 103.047 177.312 104.328 177.234L106.578 177.094V177.859C106.578 179.062 105.57 179.969 104.188 179.969C103.211 179.969 102.484 179.469 102.484 178.617ZM113.242 181.148C114.477 181.148 115.328 180.641 115.742 179.742H115.867V181H117.227V172.578H115.867V177.562C115.867 179.039 115.078 179.945 113.594 179.945C112.25 179.945 111.703 179.219 111.703 177.703V172.578H110.344V178.031C110.344 180.023 111.328 181.148 113.242 181.148ZM119.844 181H121.203V169.234H119.844V181ZM126.805 181.062C127.07 181.062 127.328 181.031 127.594 180.984V179.828C127.344 179.852 127.211 179.859 126.969 179.859C126.094 179.859 125.75 179.461 125.75 178.469V173.703H127.594V172.578H125.75V170.398H124.344V172.578H123.016V173.703H124.344V178.812C124.344 180.422 125.07 181.062 126.805 181.062ZM134.297 181H138.695C141.094 181 142.516 179.82 142.516 177.844V177.828C142.516 176.344 141.539 175.289 140 175.094V174.969C141.086 174.773 141.945 173.711 141.945 172.547V172.531C141.945 170.812 140.68 169.727 138.609 169.727H134.297V181ZM138.312 170.969C139.711 170.969 140.523 171.633 140.523 172.773V172.789C140.523 173.977 139.656 174.586 137.953 174.586H135.703V170.969H138.312ZM138.352 175.797C140.148 175.797 141.07 176.461 141.07 177.758V177.773C141.07 179.07 140.18 179.758 138.484 179.758H135.703V175.797H138.352ZM144.641 181H146V175.781C146 174.547 146.922 173.727 148.219 173.727C148.516 173.727 148.773 173.758 149.055 173.805V172.484C148.922 172.461 148.633 172.43 148.375 172.43C147.234 172.43 146.445 172.945 146.125 173.828H146V172.578H144.641V181ZM153.961 181.148C156.359 181.148 157.844 179.492 157.844 176.797V176.781C157.844 174.078 156.359 172.43 153.961 172.43C151.562 172.43 150.078 174.078 150.078 176.781V176.797C150.078 179.492 151.562 181.148 153.961 181.148ZM153.961 179.945C152.367 179.945 151.469 178.781 151.469 176.797V176.781C151.469 174.789 152.367 173.633 153.961 173.633C155.555 173.633 156.453 174.789 156.453 176.781V176.797C156.453 178.781 155.555 179.945 153.961 179.945ZM161.266 181H162.625L164.5 174.484H164.625L166.508 181H167.875L170.234 172.578H168.883L167.227 179.312H167.102L165.219 172.578H163.93L162.047 179.312H161.922L160.266 172.578H158.906L161.266 181ZM174.688 181.148C176.602 181.148 178.062 180.109 178.062 178.609V178.594C178.062 177.391 177.297 176.703 175.711 176.32L174.414 176.008C173.422 175.766 173 175.406 173 174.836V174.82C173 174.078 173.734 173.562 174.734 173.562C175.75 173.562 176.406 174.023 176.586 174.688H177.922C177.734 173.312 176.508 172.43 174.742 172.43C172.953 172.43 171.609 173.484 171.609 174.883V174.891C171.609 176.102 172.32 176.789 173.898 177.164L175.203 177.477C176.242 177.727 176.672 178.125 176.672 178.695V178.711C176.672 179.477 175.867 180.016 174.734 180.016C173.656 180.016 172.984 179.555 172.758 178.852H171.367C171.523 180.242 172.812 181.148 174.688 181.148ZM183.609 181.148C185.594 181.148 186.797 180.023 187.086 178.883L187.102 178.82H185.742L185.711 178.891C185.484 179.398 184.781 179.938 183.641 179.938C182.141 179.938 181.18 178.922 181.141 177.18H187.203V176.648C187.203 174.133 185.812 172.43 183.523 172.43C181.234 172.43 179.75 174.211 179.75 176.812V176.82C179.75 179.461 181.203 181.148 183.609 181.148ZM183.516 173.641C184.758 173.641 185.68 174.43 185.82 176.094H181.164C181.312 174.492 182.266 173.641 183.516 173.641ZM189.312 181H190.672V175.781C190.672 174.547 191.594 173.727 192.891 173.727C193.188 173.727 193.445 173.758 193.727 173.805V172.484C193.594 172.461 193.305 172.43 193.047 172.43C191.906 172.43 191.117 172.945 190.797 173.828H190.672V172.578H189.312V181ZM199.18 181H200.656L201.789 177.773H206.273L207.406 181H208.883L204.727 169.727H203.336L199.18 181ZM203.969 171.547H204.094L205.859 176.578H202.203L203.969 171.547ZM210.688 183.812H212.047V179.672H212.172C212.633 180.57 213.641 181.148 214.797 181.148C216.938 181.148 218.328 179.438 218.328 176.797V176.781C218.328 174.156 216.93 172.43 214.797 172.43C213.625 172.43 212.688 172.984 212.172 173.922H212.047V172.578H210.688V183.812ZM214.484 179.945C212.953 179.945 212.016 178.742 212.016 176.797V176.781C212.016 174.836 212.953 173.633 214.484 173.633C216.023 173.633 216.938 174.82 216.938 176.781V176.797C216.938 178.758 216.023 179.945 214.484 179.945ZM220.453 183.812H221.812V179.672H221.938C222.398 180.57 223.406 181.148 224.562 181.148C226.703 181.148 228.094 179.438 228.094 176.797V176.781C228.094 174.156 226.695 172.43 224.562 172.43C223.391 172.43 222.453 172.984 221.938 173.922H221.812V172.578H220.453V183.812ZM224.25 179.945C222.719 179.945 221.781 178.742 221.781 176.797V176.781C221.781 174.836 222.719 173.633 224.25 173.633C225.789 173.633 226.703 174.82 226.703 176.781V176.797C226.703 178.758 225.789 179.945 224.25 179.945Z" fill="black"/>
<path d="M165.477 73H167.422V65.2344H167.547L173.086 73H174.828V61.7266H172.891V69.4922H172.766L167.227 61.7266H165.477V73ZM181.07 73.1719C183.391 73.1719 184.531 71.8359 184.805 70.7344L184.828 70.6641H182.977L182.953 70.7188C182.766 71.1094 182.164 71.6406 181.109 71.6406C179.789 71.6406 178.961 70.75 178.938 69.2188H184.906V68.5781C184.906 66 183.406 64.2969 180.977 64.2969C178.547 64.2969 176.992 66.0547 176.992 68.7422V68.75C176.992 71.4688 178.531 73.1719 181.07 73.1719ZM181 65.8203C182.086 65.8203 182.875 66.5156 183.008 67.9141H178.953C179.102 66.5547 179.914 65.8203 181 65.8203ZM190.508 73.1719C192.828 73.1719 193.969 71.8359 194.242 70.7344L194.266 70.6641H192.414L192.391 70.7188C192.203 71.1094 191.602 71.6406 190.547 71.6406C189.227 71.6406 188.398 70.75 188.375 69.2188H194.344V68.5781C194.344 66 192.844 64.2969 190.414 64.2969C187.984 64.2969 186.43 66.0547 186.43 68.7422V68.75C186.43 71.4688 187.969 73.1719 190.508 73.1719ZM190.438 65.8203C191.523 65.8203 192.312 66.5156 192.445 67.9141H188.391C188.539 66.5547 189.352 65.8203 190.438 65.8203ZM198.383 73H200.516L203.539 64.4609H201.492L199.531 71.1016H199.398L197.422 64.4609H195.344L198.383 73ZM207.211 73.1406C208.336 73.1406 209.242 72.6562 209.711 71.8281H209.844V73H211.766V67.1641C211.766 65.3594 210.531 64.2969 208.336 64.2969C206.305 64.2969 204.93 65.25 204.742 66.6875L204.734 66.7578H206.57L206.578 66.7266C206.773 66.1641 207.352 65.8438 208.242 65.8438C209.289 65.8438 209.844 66.3125 209.844 67.1641V67.8984L207.648 68.0312C205.57 68.1562 204.406 69.0469 204.406 70.5703V70.5859C204.406 72.1406 205.586 73.1406 207.211 73.1406ZM206.328 70.4922V70.4766C206.328 69.7734 206.836 69.375 207.922 69.3047L209.844 69.1797V69.8672C209.844 70.8828 208.977 71.6484 207.805 71.6484C206.945 71.6484 206.328 71.2188 206.328 70.4922Z" fill="black"/>
<path d="M63.3125 67.2881C63.3125 67.5371 63.4077 67.7495 63.5981 67.9399L69.311 73.5283C69.4722 73.6895 69.6699 73.77 69.9043 73.77C70.3804 73.77 70.7612 73.4038 70.7612 72.9277C70.7612 72.6934 70.666 72.481 70.5049 72.3125L65.3486 67.2881L70.5049 62.2637C70.6587 62.1025 70.7612 61.8901 70.7612 61.6558C70.7612 61.1724 70.3804 60.8062 69.9043 60.8062C69.6699 60.8062 69.4722 60.8867 69.311 61.0479L63.5981 66.6362C63.4004 66.8267 63.3125 67.0391 63.3125 67.2881Z" fill="#4078FB"/>
</g>
<defs>
<clipPath id="clip0_24_1185">
<rect width="376" height="215" fill="white"/>
</clipPath>
</defs>
</svg>
